%TF.GenerationSoftware,KiCad,Pcbnew,(2017-09-01 revision 8d1475135)-makepkg*%
%TF.CreationDate,2017-09-04T13:55:26-07:00*%
%TF.ProjectId,SM01,534D30312E6B696361645F7063620000,rev?*%
%TF.SameCoordinates,Original*%
%TF.FileFunction,Copper,L2,Bot,Signal*%
%TF.FilePolarity,Positive*%
%FSLAX46Y46*%
G04 Gerber Fmt 4.6, Leading zero omitted, Abs format (unit mm)*
G04 Created by KiCad (PCBNEW (2017-09-01 revision 8d1475135)-makepkg) date 09/04/17 13:55:26*
%MOMM*%
%LPD*%
G01*
G04 APERTURE LIST*
%TA.AperFunction,ComponentPad*%
%ADD10C,1.397000*%
%TD*%
%TA.AperFunction,ComponentPad*%
%ADD11O,1.600000X1.600000*%
%TD*%
%TA.AperFunction,ComponentPad*%
%ADD12R,1.600000X1.600000*%
%TD*%
%TA.AperFunction,ComponentPad*%
%ADD13C,2.667000*%
%TD*%
%TA.AperFunction,ComponentPad*%
%ADD14C,1.803400*%
%TD*%
%TA.AperFunction,ComponentPad*%
%ADD15C,1.524000*%
%TD*%
%TA.AperFunction,ComponentPad*%
%ADD16R,1.270000X1.270000*%
%TD*%
%TA.AperFunction,ComponentPad*%
%ADD17C,1.600000*%
%TD*%
%TA.AperFunction,ComponentPad*%
%ADD18O,1.800000X1.800000*%
%TD*%
%TA.AperFunction,ComponentPad*%
%ADD19R,1.800000X1.800000*%
%TD*%
%TA.AperFunction,ComponentPad*%
%ADD20C,1.651000*%
%TD*%
%TA.AperFunction,ComponentPad*%
%ADD21R,1.000000X1.000000*%
%TD*%
%TA.AperFunction,ComponentPad*%
%ADD22C,1.000000*%
%TD*%
%TA.AperFunction,ViaPad*%
%ADD23C,0.800000*%
%TD*%
%TA.AperFunction,Conductor*%
%ADD24C,0.250000*%
%TD*%
%TA.AperFunction,Conductor*%
%ADD25C,0.500000*%
%TD*%
G04 APERTURE END LIST*
D10*
%TO.P,R3,1*%
%TO.N,Net-(J3-Pad1)*%
X100000000Y88810000D03*
%TO.P,R3,2*%
%TO.N,Net-(R3-Pad2)*%
X100000000Y81190000D03*
%TD*%
D11*
%TO.P,U4,14*%
%TO.N,Net-(C10-Pad1)*%
X26000000Y24620000D03*
%TO.P,U4,7*%
%TO.N,GND*%
X10760000Y17000000D03*
%TO.P,U4,13*%
%TO.N,Net-(C18-Pad2)*%
X23460000Y24620000D03*
%TO.P,U4,6*%
%TO.N,Net-(J8-Pad2)*%
X13300000Y17000000D03*
%TO.P,U4,12*%
%TO.N,N/C*%
X20920000Y24620000D03*
%TO.P,U4,5*%
%TO.N,Net-(C25-Pad1)*%
X15840000Y17000000D03*
%TO.P,U4,11*%
%TO.N,Net-(C18-Pad1)*%
X18380000Y24620000D03*
%TO.P,U4,4*%
%TO.N,Net-(R31-Pad2)*%
X18380000Y17000000D03*
%TO.P,U4,10*%
%TO.N,Net-(R28-Pad2)*%
X15840000Y24620000D03*
%TO.P,U4,3*%
%TO.N,Net-(C21-Pad1)*%
X20920000Y17000000D03*
%TO.P,U4,9*%
%TO.N,GND*%
X13300000Y24620000D03*
%TO.P,U4,2*%
%TO.N,Net-(C21-Pad2)*%
X23460000Y17000000D03*
%TO.P,U4,8*%
%TO.N,Net-(R12-Pad1)*%
X10760000Y24620000D03*
D12*
%TO.P,U4,1*%
%TO.N,Net-(C13-Pad1)*%
X26000000Y17000000D03*
%TD*%
D13*
%TO.P,DECAY1,5*%
%TO.N,N/C*%
X5605637Y60001843D03*
%TO.P,DECAY1,4*%
X14394037Y60001843D03*
D14*
%TO.P,DECAY1,1*%
%TO.N,Net-(DECAY1-Pad1)*%
X12539837Y67012243D03*
%TO.P,DECAY1,2*%
%TO.N,GND*%
X9999837Y67012243D03*
%TO.P,DECAY1,3*%
X7459837Y67012243D03*
%TD*%
%TO.P,SENSE1,3*%
%TO.N,GND*%
X7459837Y92012243D03*
%TO.P,SENSE1,2*%
%TO.N,Net-(R1-Pad2)*%
X9999837Y92012243D03*
%TO.P,SENSE1,1*%
%TO.N,Net-(J1-Pad1)*%
X12539837Y92012243D03*
D13*
%TO.P,SENSE1,4*%
%TO.N,N/C*%
X14394037Y85001843D03*
%TO.P,SENSE1,5*%
X5605637Y85001843D03*
%TD*%
D15*
%TO.P,J9,*%
%TO.N,*%
X62738000Y96901000D03*
X60198000Y96901000D03*
%TO.P,J9,2*%
%TO.N,Net-(J9-Pad2)*%
X62738000Y94996000D03*
%TO.P,J9,1*%
%TO.N,Net-(J9-Pad1)*%
X60198000Y94996000D03*
%TO.P,J9,3*%
%TO.N,GND*%
X65278000Y94996000D03*
%TO.P,J9,*%
%TO.N,*%
X65278000Y96901000D03*
%TD*%
%TO.P,J8,*%
%TO.N,*%
X25146000Y96901000D03*
%TO.P,J8,3*%
%TO.N,GND*%
X25146000Y94996000D03*
%TO.P,J8,1*%
%TO.N,Net-(J8-Pad1)*%
X20066000Y94996000D03*
%TO.P,J8,2*%
%TO.N,Net-(J8-Pad2)*%
X22606000Y94996000D03*
%TO.P,J8,*%
%TO.N,*%
X20066000Y96901000D03*
X22606000Y96901000D03*
%TD*%
%TO.P,J10,*%
%TO.N,*%
X102616000Y96901000D03*
X100076000Y96901000D03*
%TO.P,J10,2*%
%TO.N,Net-(J10-Pad2)*%
X102616000Y94996000D03*
%TO.P,J10,1*%
%TO.N,Net-(J10-Pad1)*%
X100076000Y94996000D03*
%TO.P,J10,3*%
%TO.N,GND*%
X105156000Y94996000D03*
%TO.P,J10,*%
%TO.N,*%
X105156000Y96901000D03*
%TD*%
D16*
%TO.P,LEDSW4,7*%
%TO.N,Net-(LEDSW4-Pad7)*%
X135080000Y10000000D03*
D15*
%TO.P,LEDSW4,8*%
%TO.N,GND*%
X124920000Y10000000D03*
%TO.P,LEDSW4,6*%
%TO.N,Net-(LEDSW4-Pad6)*%
X127460000Y7460000D03*
%TO.P,LEDSW4,5*%
%TO.N,Net-(LEDSW4-Pad5)*%
X130000000Y7460000D03*
%TO.P,LEDSW4,4*%
%TO.N,Net-(LEDSW4-Pad4)*%
X132540000Y7460000D03*
%TO.P,LEDSW4,3*%
%TO.N,+5V*%
X127460000Y12540000D03*
%TO.P,LEDSW4,2*%
%TO.N,Net-(J5-Pad1)*%
X130000000Y12540000D03*
%TO.P,LEDSW4,1*%
%TO.N,Net-(LEDSW4-Pad1)*%
X132540000Y12540000D03*
%TD*%
%TO.P,LEDSW3,1*%
%TO.N,Net-(LEDSW3-Pad1)*%
X92540000Y12540000D03*
%TO.P,LEDSW3,2*%
%TO.N,Net-(J3-Pad1)*%
X90000000Y12540000D03*
%TO.P,LEDSW3,3*%
%TO.N,+5V*%
X87460000Y12540000D03*
%TO.P,LEDSW3,4*%
%TO.N,Net-(LEDSW3-Pad4)*%
X92540000Y7460000D03*
%TO.P,LEDSW3,5*%
%TO.N,Net-(LEDSW3-Pad5)*%
X90000000Y7460000D03*
%TO.P,LEDSW3,6*%
%TO.N,Net-(LEDSW3-Pad6)*%
X87460000Y7460000D03*
%TO.P,LEDSW3,8*%
%TO.N,GND*%
X84920000Y10000000D03*
D16*
%TO.P,LEDSW3,7*%
%TO.N,Net-(LEDSW3-Pad7)*%
X95080000Y10000000D03*
%TD*%
%TO.P,LEDSW1,7*%
%TO.N,Net-(LEDSW1-Pad7)*%
X15080000Y10000000D03*
D15*
%TO.P,LEDSW1,8*%
%TO.N,GND*%
X4920000Y10000000D03*
%TO.P,LEDSW1,6*%
%TO.N,Net-(LEDSW1-Pad6)*%
X7460000Y7460000D03*
%TO.P,LEDSW1,5*%
%TO.N,Net-(LEDSW1-Pad5)*%
X10000000Y7460000D03*
%TO.P,LEDSW1,4*%
%TO.N,Net-(LEDSW1-Pad4)*%
X12540000Y7460000D03*
%TO.P,LEDSW1,3*%
%TO.N,+5V*%
X7460000Y12540000D03*
%TO.P,LEDSW1,2*%
%TO.N,Net-(J1-Pad1)*%
X10000000Y12540000D03*
%TO.P,LEDSW1,1*%
%TO.N,Net-(LEDSW1-Pad1)*%
X12540000Y12540000D03*
%TD*%
%TO.P,LEDSW2,1*%
%TO.N,Net-(LEDSW2-Pad1)*%
X52540000Y12540000D03*
%TO.P,LEDSW2,2*%
%TO.N,Net-(J2-Pad1)*%
X50000000Y12540000D03*
%TO.P,LEDSW2,3*%
%TO.N,+5V*%
X47460000Y12540000D03*
%TO.P,LEDSW2,4*%
%TO.N,Net-(LEDSW2-Pad4)*%
X52540000Y7460000D03*
%TO.P,LEDSW2,5*%
%TO.N,Net-(LEDSW2-Pad5)*%
X50000000Y7460000D03*
%TO.P,LEDSW2,6*%
%TO.N,Net-(LEDSW2-Pad6)*%
X47460000Y7460000D03*
%TO.P,LEDSW2,8*%
%TO.N,GND*%
X44920000Y10000000D03*
D16*
%TO.P,LEDSW2,7*%
%TO.N,Net-(LEDSW2-Pad7)*%
X55080000Y10000000D03*
%TD*%
D10*
%TO.P,R50,1*%
%TO.N,LED_AR*%
X145288000Y42926000D03*
%TO.P,R50,2*%
%TO.N,Net-(LEDSW4-Pad7)*%
X137668000Y42926000D03*
%TD*%
D17*
%TO.P,C18,2*%
%TO.N,Net-(C18-Pad2)*%
X23450000Y28860000D03*
%TO.P,C18,1*%
%TO.N,Net-(C18-Pad1)*%
X18450000Y28860000D03*
%TD*%
%TO.P,C27,1*%
%TO.N,Net-(C27-Pad1)*%
X100918000Y35052000D03*
%TO.P,C27,2*%
%TO.N,Net-(C27-Pad2)*%
X105918000Y35052000D03*
%TD*%
%TO.P,C26,2*%
%TO.N,Net-(C26-Pad2)*%
X65786000Y35052000D03*
%TO.P,C26,1*%
%TO.N,Net-(C26-Pad1)*%
X60786000Y35052000D03*
%TD*%
%TO.P,C25,1*%
%TO.N,Net-(C25-Pad1)*%
X20828000Y35052000D03*
%TO.P,C25,2*%
%TO.N,Net-(C25-Pad2)*%
X25828000Y35052000D03*
%TD*%
%TO.P,C24,2*%
%TO.N,GND*%
X146638000Y96774000D03*
%TO.P,C24,1*%
%TO.N,Net-(C24-Pad1)*%
X151638000Y96774000D03*
%TD*%
%TO.P,C23,1*%
%TO.N,Net-(C23-Pad1)*%
X98552000Y4000000D03*
%TO.P,C23,2*%
%TO.N,Net-(C23-Pad2)*%
X103552000Y4000000D03*
%TD*%
%TO.P,C22,2*%
%TO.N,Net-(C22-Pad2)*%
X63420000Y4000000D03*
%TO.P,C22,1*%
%TO.N,Net-(C22-Pad1)*%
X58420000Y4000000D03*
%TD*%
%TO.P,C21,1*%
%TO.N,Net-(C21-Pad1)*%
X18542000Y4000000D03*
%TO.P,C21,2*%
%TO.N,Net-(C21-Pad2)*%
X23542000Y4000000D03*
%TD*%
%TO.P,C20,2*%
%TO.N,Net-(C20-Pad2)*%
X103298000Y27432000D03*
%TO.P,C20,1*%
%TO.N,Net-(C20-Pad1)*%
X98298000Y27432000D03*
%TD*%
%TO.P,C19,1*%
%TO.N,Net-(C19-Pad1)*%
X58420000Y27940000D03*
%TO.P,C19,2*%
%TO.N,Net-(C19-Pad2)*%
X63420000Y27940000D03*
%TD*%
%TO.P,C17,2*%
%TO.N,GND*%
X154178000Y57484000D03*
%TO.P,C17,1*%
%TO.N,Net-(C17-Pad1)*%
X154178000Y62484000D03*
%TD*%
%TO.P,C16,1*%
%TO.N,GND*%
X145796000Y62484000D03*
%TO.P,C16,2*%
%TO.N,Net-(C16-Pad2)*%
X145796000Y57484000D03*
%TD*%
%TO.P,C9,2*%
%TO.N,GND*%
X114300000Y57484000D03*
%TO.P,C9,1*%
%TO.N,Net-(C9-Pad1)*%
X114300000Y62484000D03*
%TD*%
%TO.P,C8,1*%
%TO.N,Net-(C8-Pad1)*%
X74168000Y62404000D03*
%TO.P,C8,2*%
%TO.N,GND*%
X74168000Y57404000D03*
%TD*%
%TO.P,C7,2*%
%TO.N,GND*%
X34290000Y57520000D03*
%TO.P,C7,1*%
%TO.N,Net-(C7-Pad1)*%
X34290000Y62520000D03*
%TD*%
%TO.P,C6,1*%
%TO.N,GND*%
X105664000Y62484000D03*
%TO.P,C6,2*%
%TO.N,Net-(C6-Pad2)*%
X105664000Y57484000D03*
%TD*%
%TO.P,C5,2*%
%TO.N,Net-(C5-Pad2)*%
X65786000Y57484000D03*
%TO.P,C5,1*%
%TO.N,GND*%
X65786000Y62484000D03*
%TD*%
%TO.P,C4,1*%
%TO.N,GND*%
X25654000Y62484000D03*
%TO.P,C4,2*%
%TO.N,Net-(C4-Pad2)*%
X25654000Y57484000D03*
%TD*%
%TO.P,C1,2*%
%TO.N,GND*%
X155702000Y27218000D03*
D12*
%TO.P,C1,1*%
%TO.N,Net-(C1-Pad1)*%
X155702000Y29718000D03*
%TD*%
%TO.P,C2,1*%
%TO.N,+5V*%
X138938000Y24130000D03*
D17*
%TO.P,C2,2*%
%TO.N,GND*%
X138938000Y26630000D03*
%TD*%
%TO.P,C3,2*%
%TO.N,GND*%
X131826000Y26630000D03*
D12*
%TO.P,C3,1*%
%TO.N,2.5v*%
X131826000Y24130000D03*
%TD*%
%TO.P,C28,1*%
%TO.N,Net-(C25-Pad1)*%
X10000000Y47000000D03*
D17*
%TO.P,C28,2*%
%TO.N,GND*%
X10000000Y49500000D03*
%TD*%
%TO.P,C30,2*%
%TO.N,GND*%
X90000000Y49500000D03*
D12*
%TO.P,C30,1*%
%TO.N,Net-(C27-Pad1)*%
X90000000Y47000000D03*
%TD*%
%TO.P,C31,1*%
%TO.N,Net-(C31-Pad1)*%
X124460000Y40386000D03*
D17*
%TO.P,C31,2*%
%TO.N,Net-(C31-Pad2)*%
X126960000Y40386000D03*
%TD*%
%TO.P,C32,2*%
%TO.N,Net-(C32-Pad2)*%
X161250000Y51054000D03*
D12*
%TO.P,C32,1*%
%TO.N,Net-(C32-Pad1)*%
X158750000Y51054000D03*
%TD*%
%TO.P,C29,1*%
%TO.N,Net-(C26-Pad1)*%
X50000000Y47000000D03*
D17*
%TO.P,C29,2*%
%TO.N,GND*%
X50000000Y49500000D03*
%TD*%
%TO.P,C15,2*%
%TO.N,GND*%
X100000000Y49500000D03*
D12*
%TO.P,C15,1*%
%TO.N,Net-(C15-Pad1)*%
X100000000Y47000000D03*
%TD*%
%TO.P,C10,1*%
%TO.N,Net-(C10-Pad1)*%
X30000000Y47000000D03*
D17*
%TO.P,C10,2*%
%TO.N,GND*%
X30000000Y49500000D03*
%TD*%
%TO.P,C11,2*%
%TO.N,GND*%
X70000000Y49500000D03*
D12*
%TO.P,C11,1*%
%TO.N,Net-(C11-Pad1)*%
X70000000Y47000000D03*
%TD*%
%TO.P,C12,1*%
%TO.N,Net-(C12-Pad1)*%
X110000000Y47000000D03*
D17*
%TO.P,C12,2*%
%TO.N,GND*%
X110000000Y49500000D03*
%TD*%
%TO.P,C13,2*%
%TO.N,GND*%
X20000000Y49500000D03*
D12*
%TO.P,C13,1*%
%TO.N,Net-(C13-Pad1)*%
X20000000Y47000000D03*
%TD*%
%TO.P,C14,1*%
%TO.N,Net-(C14-Pad1)*%
X60000000Y47000000D03*
D17*
%TO.P,C14,2*%
%TO.N,GND*%
X60000000Y49500000D03*
%TD*%
D12*
%TO.P,U6,1*%
%TO.N,Net-(C15-Pad1)*%
X106000000Y17000000D03*
D11*
%TO.P,U6,8*%
%TO.N,Net-(R14-Pad1)*%
X90760000Y24620000D03*
%TO.P,U6,2*%
%TO.N,Net-(C23-Pad2)*%
X103460000Y17000000D03*
%TO.P,U6,9*%
%TO.N,GND*%
X93300000Y24620000D03*
%TO.P,U6,3*%
%TO.N,Net-(C23-Pad1)*%
X100920000Y17000000D03*
%TO.P,U6,10*%
%TO.N,Net-(R30-Pad2)*%
X95840000Y24620000D03*
%TO.P,U6,4*%
%TO.N,Net-(R33-Pad2)*%
X98380000Y17000000D03*
%TO.P,U6,11*%
%TO.N,Net-(C20-Pad1)*%
X98380000Y24620000D03*
%TO.P,U6,5*%
%TO.N,Net-(C27-Pad1)*%
X95840000Y17000000D03*
%TO.P,U6,12*%
%TO.N,N/C*%
X100920000Y24620000D03*
%TO.P,U6,6*%
%TO.N,Net-(J10-Pad2)*%
X93300000Y17000000D03*
%TO.P,U6,13*%
%TO.N,Net-(C20-Pad2)*%
X103460000Y24620000D03*
%TO.P,U6,7*%
%TO.N,GND*%
X90760000Y17000000D03*
%TO.P,U6,14*%
%TO.N,Net-(C12-Pad1)*%
X106000000Y24620000D03*
%TD*%
%TO.P,U5,14*%
%TO.N,Net-(C11-Pad1)*%
X66000000Y24620000D03*
%TO.P,U5,7*%
%TO.N,GND*%
X50760000Y17000000D03*
%TO.P,U5,13*%
%TO.N,Net-(C19-Pad2)*%
X63460000Y24620000D03*
%TO.P,U5,6*%
%TO.N,Net-(J9-Pad2)*%
X53300000Y17000000D03*
%TO.P,U5,12*%
%TO.N,N/C*%
X60920000Y24620000D03*
%TO.P,U5,5*%
%TO.N,Net-(C26-Pad1)*%
X55840000Y17000000D03*
%TO.P,U5,11*%
%TO.N,Net-(C19-Pad1)*%
X58380000Y24620000D03*
%TO.P,U5,4*%
%TO.N,Net-(R32-Pad2)*%
X58380000Y17000000D03*
%TO.P,U5,10*%
%TO.N,Net-(R29-Pad2)*%
X55840000Y24620000D03*
%TO.P,U5,3*%
%TO.N,Net-(C22-Pad1)*%
X60920000Y17000000D03*
%TO.P,U5,9*%
%TO.N,GND*%
X53300000Y24620000D03*
%TO.P,U5,2*%
%TO.N,Net-(C22-Pad2)*%
X63460000Y17000000D03*
%TO.P,U5,8*%
%TO.N,Net-(R13-Pad1)*%
X50760000Y24620000D03*
D12*
%TO.P,U5,1*%
%TO.N,Net-(C14-Pad1)*%
X66000000Y17000000D03*
%TD*%
D11*
%TO.P,U3,8*%
%TO.N,+5V*%
X105000000Y76620000D03*
%TO.P,U3,4*%
%TO.N,GND*%
X97380000Y69000000D03*
%TO.P,U3,7*%
%TO.N,Net-(U3-Pad6)*%
X102460000Y76620000D03*
%TO.P,U3,3*%
%TO.N,Net-(R3-Pad2)*%
X99920000Y69000000D03*
%TO.P,U3,6*%
%TO.N,Net-(U3-Pad6)*%
X99920000Y76620000D03*
%TO.P,U3,2*%
%TO.N,Net-(R11-Pad2)*%
X102460000Y69000000D03*
%TO.P,U3,5*%
%TO.N,Net-(ATTACK3-Pad2)*%
X97380000Y76620000D03*
D12*
%TO.P,U3,1*%
%TO.N,Net-(D4-Pad2)*%
X105000000Y69000000D03*
%TD*%
%TO.P,U2,1*%
%TO.N,Net-(D3-Pad2)*%
X65000000Y69000000D03*
D11*
%TO.P,U2,5*%
%TO.N,Net-(ATTACK2-Pad2)*%
X57380000Y76620000D03*
%TO.P,U2,2*%
%TO.N,Net-(R10-Pad2)*%
X62460000Y69000000D03*
%TO.P,U2,6*%
%TO.N,Net-(U2-Pad6)*%
X59920000Y76620000D03*
%TO.P,U2,3*%
%TO.N,Net-(R2-Pad2)*%
X59920000Y69000000D03*
%TO.P,U2,7*%
%TO.N,Net-(U2-Pad6)*%
X62460000Y76620000D03*
%TO.P,U2,4*%
%TO.N,GND*%
X57380000Y69000000D03*
%TO.P,U2,8*%
%TO.N,+5V*%
X65000000Y76620000D03*
%TD*%
%TO.P,U1,8*%
%TO.N,+5V*%
X25000000Y76620000D03*
%TO.P,U1,4*%
%TO.N,GND*%
X17380000Y69000000D03*
%TO.P,U1,7*%
%TO.N,Net-(U1-Pad6)*%
X22460000Y76620000D03*
%TO.P,U1,3*%
%TO.N,Net-(R1-Pad2)*%
X19920000Y69000000D03*
%TO.P,U1,6*%
%TO.N,Net-(U1-Pad6)*%
X19920000Y76620000D03*
%TO.P,U1,2*%
%TO.N,Net-(R4-Pad1)*%
X22460000Y69000000D03*
%TO.P,U1,5*%
%TO.N,Net-(ATTACK1-Pad2)*%
X17380000Y76620000D03*
D12*
%TO.P,U1,1*%
%TO.N,Net-(D2-Pad2)*%
X25000000Y69000000D03*
%TD*%
%TO.P,U8,1*%
%TO.N,Net-(D5-Pad2)*%
X145000000Y69000000D03*
D11*
%TO.P,U8,5*%
%TO.N,Net-(ATTACK4-Pad2)*%
X137380000Y76620000D03*
%TO.P,U8,2*%
%TO.N,Net-(R19-Pad1)*%
X142460000Y69000000D03*
%TO.P,U8,6*%
%TO.N,Net-(R35-Pad2)*%
X139920000Y76620000D03*
%TO.P,U8,3*%
%TO.N,Net-(R18-Pad2)*%
X139920000Y69000000D03*
%TO.P,U8,7*%
%TO.N,Net-(R35-Pad2)*%
X142460000Y76620000D03*
%TO.P,U8,4*%
%TO.N,GND*%
X137380000Y69000000D03*
%TO.P,U8,8*%
%TO.N,+5V*%
X145000000Y76620000D03*
%TD*%
%TO.P,U9,8*%
%TO.N,GND*%
X177292000Y39878000D03*
%TO.P,U9,4*%
%TO.N,+5V*%
X184912000Y32258000D03*
%TO.P,U9,7*%
%TO.N,Net-(R40-Pad1)*%
X177292000Y37338000D03*
%TO.P,U9,3*%
%TO.N,2.5v*%
X184912000Y34798000D03*
%TO.P,U9,6*%
%TO.N,Net-(R36-Pad1)*%
X177292000Y34798000D03*
%TO.P,U9,2*%
%TO.N,Net-(R39-Pad2)*%
X184912000Y37338000D03*
%TO.P,U9,5*%
%TO.N,2.5v*%
X177292000Y32258000D03*
D12*
%TO.P,U9,1*%
%TO.N,Net-(R43-Pad1)*%
X184912000Y39878000D03*
%TD*%
%TO.P,U10,1*%
%TO.N,Net-(R41-Pad1)*%
X185166000Y74676000D03*
D11*
%TO.P,U10,5*%
%TO.N,2.5v*%
X177546000Y67056000D03*
%TO.P,U10,2*%
%TO.N,Net-(R37-Pad2)*%
X185166000Y72136000D03*
%TO.P,U10,6*%
%TO.N,Net-(R38-Pad2)*%
X177546000Y69596000D03*
%TO.P,U10,3*%
%TO.N,2.5v*%
X185166000Y69596000D03*
%TO.P,U10,7*%
%TO.N,Net-(R42-Pad1)*%
X177546000Y72136000D03*
%TO.P,U10,4*%
%TO.N,+5V*%
X185166000Y67056000D03*
%TO.P,U10,8*%
%TO.N,GND*%
X177546000Y74676000D03*
%TD*%
%TO.P,U11,8*%
%TO.N,GND*%
X147574000Y48006000D03*
%TO.P,U11,4*%
%TO.N,+5V*%
X155194000Y40386000D03*
%TO.P,U11,7*%
%TO.N,LED_AR*%
X147574000Y45466000D03*
%TO.P,U11,3*%
%TO.N,2.5v*%
X155194000Y42926000D03*
%TO.P,U11,6*%
%TO.N,LED_AR*%
X147574000Y42926000D03*
%TO.P,U11,2*%
%TO.N,Net-(R48-Pad2)*%
X155194000Y45466000D03*
%TO.P,U11,5*%
%TO.N,Net-(ATTACK4-Pad2)*%
X147574000Y40386000D03*
D12*
%TO.P,U11,1*%
%TO.N,Net-(C32-Pad1)*%
X155194000Y48006000D03*
%TD*%
D18*
%TO.P,D2,2*%
%TO.N,Net-(D2-Pad2)*%
X33782000Y69596000D03*
D19*
%TO.P,D2,1*%
%TO.N,Net-(ATTACK1-Pad1)*%
X33782000Y77216000D03*
%TD*%
%TO.P,D1,1*%
%TO.N,Net-(C1-Pad1)*%
X141224000Y30734000D03*
D18*
%TO.P,D1,2*%
%TO.N,Net-(D1-Pad2)*%
X133604000Y30734000D03*
%TD*%
%TO.P,D5,2*%
%TO.N,Net-(D5-Pad2)*%
X155702000Y69088000D03*
D19*
%TO.P,D5,1*%
%TO.N,Net-(ATTACK4-Pad1)*%
X155702000Y76708000D03*
%TD*%
%TO.P,D4,1*%
%TO.N,Net-(ATTACK3-Pad1)*%
X114046000Y76708000D03*
D18*
%TO.P,D4,2*%
%TO.N,Net-(D4-Pad2)*%
X114046000Y69088000D03*
%TD*%
%TO.P,D6,2*%
%TO.N,Net-(C31-Pad1)*%
X124460000Y45720000D03*
D19*
%TO.P,D6,1*%
%TO.N,Net-(D6-Pad1)*%
X132080000Y45720000D03*
%TD*%
%TO.P,D3,1*%
%TO.N,Net-(ATTACK2-Pad1)*%
X74168000Y76708000D03*
D18*
%TO.P,D3,2*%
%TO.N,Net-(D3-Pad2)*%
X74168000Y69088000D03*
%TD*%
D13*
%TO.P,SENSE2,5*%
%TO.N,N/C*%
X45605637Y85001843D03*
%TO.P,SENSE2,4*%
X54394037Y85001843D03*
D14*
%TO.P,SENSE2,1*%
%TO.N,Net-(J2-Pad1)*%
X52539837Y92012243D03*
%TO.P,SENSE2,2*%
%TO.N,Net-(R2-Pad2)*%
X49999837Y92012243D03*
%TO.P,SENSE2,3*%
%TO.N,GND*%
X47459837Y92012243D03*
%TD*%
%TO.P,SENSE3,3*%
%TO.N,GND*%
X87459837Y92012243D03*
%TO.P,SENSE3,2*%
%TO.N,Net-(R3-Pad2)*%
X89999837Y92012243D03*
%TO.P,SENSE3,1*%
%TO.N,Net-(J3-Pad1)*%
X92539837Y92012243D03*
D13*
%TO.P,SENSE3,4*%
%TO.N,N/C*%
X94394037Y85001843D03*
%TO.P,SENSE3,5*%
X85605637Y85001843D03*
%TD*%
%TO.P,SENSE4,5*%
%TO.N,N/C*%
X125605637Y85001843D03*
%TO.P,SENSE4,4*%
X134394037Y85001843D03*
D14*
%TO.P,SENSE4,1*%
%TO.N,Net-(J5-Pad1)*%
X132539837Y92012243D03*
%TO.P,SENSE4,2*%
%TO.N,Net-(R18-Pad2)*%
X129999837Y92012243D03*
%TO.P,SENSE4,3*%
%TO.N,GND*%
X127459837Y92012243D03*
%TD*%
%TO.P,ATTACK1,3*%
%TO.N,Net-(ATTACK1-Pad2)*%
X27459837Y92012243D03*
%TO.P,ATTACK1,2*%
X29999837Y92012243D03*
%TO.P,ATTACK1,1*%
%TO.N,Net-(ATTACK1-Pad1)*%
X32539837Y92012243D03*
D13*
%TO.P,ATTACK1,4*%
%TO.N,N/C*%
X34394037Y85001843D03*
%TO.P,ATTACK1,5*%
X25605637Y85001843D03*
%TD*%
%TO.P,ATTACK4,5*%
%TO.N,N/C*%
X145605637Y85001843D03*
%TO.P,ATTACK4,4*%
X154394037Y85001843D03*
D14*
%TO.P,ATTACK4,1*%
%TO.N,Net-(ATTACK4-Pad1)*%
X152539837Y92012243D03*
%TO.P,ATTACK4,2*%
%TO.N,Net-(ATTACK4-Pad2)*%
X149999837Y92012243D03*
%TO.P,ATTACK4,3*%
X147459837Y92012243D03*
%TD*%
%TO.P,ATTACK3,3*%
%TO.N,Net-(ATTACK3-Pad2)*%
X107459837Y92012243D03*
%TO.P,ATTACK3,2*%
X109999837Y92012243D03*
%TO.P,ATTACK3,1*%
%TO.N,Net-(ATTACK3-Pad1)*%
X112539837Y92012243D03*
D13*
%TO.P,ATTACK3,4*%
%TO.N,N/C*%
X114394037Y85001843D03*
%TO.P,ATTACK3,5*%
X105605637Y85001843D03*
%TD*%
%TO.P,ATTACK2,5*%
%TO.N,N/C*%
X65605637Y85001843D03*
%TO.P,ATTACK2,4*%
X74394037Y85001843D03*
D14*
%TO.P,ATTACK2,1*%
%TO.N,Net-(ATTACK2-Pad1)*%
X72539837Y92012243D03*
%TO.P,ATTACK2,2*%
%TO.N,Net-(ATTACK2-Pad2)*%
X69999837Y92012243D03*
%TO.P,ATTACK2,3*%
X67459837Y92012243D03*
%TD*%
%TO.P,VOL1,3*%
%TO.N,2.5v*%
X167459837Y86012243D03*
%TO.P,VOL1,2*%
%TO.N,Net-(R45-Pad2)*%
X169999837Y86012243D03*
%TO.P,VOL1,1*%
%TO.N,Net-(R41-Pad1)*%
X172539837Y86012243D03*
D13*
%TO.P,VOL1,4*%
%TO.N,N/C*%
X174394037Y79001843D03*
%TO.P,VOL1,5*%
X165605637Y79001843D03*
%TD*%
D14*
%TO.P,DECAY2,3*%
%TO.N,GND*%
X47459837Y67012243D03*
%TO.P,DECAY2,2*%
X49999837Y67012243D03*
%TO.P,DECAY2,1*%
%TO.N,Net-(DECAY2-Pad1)*%
X52539837Y67012243D03*
D13*
%TO.P,DECAY2,4*%
%TO.N,N/C*%
X54394037Y60001843D03*
%TO.P,DECAY2,5*%
X45605637Y60001843D03*
%TD*%
%TO.P,DECAY3,5*%
%TO.N,N/C*%
X85605637Y60001843D03*
%TO.P,DECAY3,4*%
X94394037Y60001843D03*
D14*
%TO.P,DECAY3,1*%
%TO.N,Net-(DECAY3-Pad1)*%
X92539837Y67012243D03*
%TO.P,DECAY3,2*%
%TO.N,GND*%
X89999837Y67012243D03*
%TO.P,DECAY3,3*%
X87459837Y67012243D03*
%TD*%
%TO.P,DECAY4,3*%
%TO.N,GND*%
X127459837Y67012243D03*
%TO.P,DECAY4,2*%
X129999837Y67012243D03*
%TO.P,DECAY4,1*%
%TO.N,Net-(DECAY4-Pad1)*%
X132539837Y67012243D03*
D13*
%TO.P,DECAY4,4*%
%TO.N,N/C*%
X134394037Y60001843D03*
%TO.P,DECAY4,5*%
X125605637Y60001843D03*
%TD*%
%TO.P,VOL2,5*%
%TO.N,N/C*%
X165605637Y61751843D03*
%TO.P,VOL2,4*%
X174394037Y61751843D03*
D14*
%TO.P,VOL2,1*%
%TO.N,Net-(R42-Pad1)*%
X172539837Y68762243D03*
%TO.P,VOL2,2*%
%TO.N,Net-(R46-Pad2)*%
X169999837Y68762243D03*
%TO.P,VOL2,3*%
%TO.N,2.5v*%
X167459837Y68762243D03*
%TD*%
%TO.P,VOL3,3*%
%TO.N,2.5v*%
X167459837Y51512243D03*
%TO.P,VOL3,2*%
%TO.N,Net-(R47-Pad2)*%
X169999837Y51512243D03*
%TO.P,VOL3,1*%
%TO.N,Net-(R43-Pad1)*%
X172539837Y51512243D03*
D13*
%TO.P,VOL3,4*%
%TO.N,N/C*%
X174394037Y44501843D03*
%TO.P,VOL3,5*%
X165605637Y44501843D03*
%TD*%
%TO.P,VOL4,5*%
%TO.N,N/C*%
X165605637Y27251843D03*
%TO.P,VOL4,4*%
X174394037Y27251843D03*
D14*
%TO.P,VOL4,1*%
%TO.N,Net-(R40-Pad1)*%
X172539837Y34262243D03*
%TO.P,VOL4,2*%
%TO.N,Net-(R44-Pad2)*%
X169999837Y34262243D03*
%TO.P,VOL4,3*%
%TO.N,2.5v*%
X167459837Y34262243D03*
%TD*%
%TO.P,MASTERV1,3*%
%TO.N,GND*%
X167459837Y17012243D03*
%TO.P,MASTERV1,2*%
%TO.N,Net-(J7-Pad1)*%
X169999837Y17012243D03*
%TO.P,MASTERV1,1*%
%TO.N,Net-(MASTERV1-Pad1)*%
X172539837Y17012243D03*
D13*
%TO.P,MASTERV1,4*%
%TO.N,N/C*%
X174394037Y10001843D03*
%TO.P,MASTERV1,5*%
X165605637Y10001843D03*
%TD*%
%TO.P,OSC1,5*%
%TO.N,N/C*%
X5605637Y35001843D03*
%TO.P,OSC1,4*%
X14394037Y35001843D03*
D14*
%TO.P,OSC1,1*%
%TO.N,Net-(C25-Pad1)*%
X12539837Y42012243D03*
%TO.P,OSC1,2*%
X9999837Y42012243D03*
%TO.P,OSC1,3*%
%TO.N,Net-(J8-Pad1)*%
X7459837Y42012243D03*
%TD*%
%TO.P,OSC2,3*%
%TO.N,Net-(J9-Pad1)*%
X47459837Y42012243D03*
%TO.P,OSC2,2*%
%TO.N,Net-(C26-Pad1)*%
X49999837Y42012243D03*
%TO.P,OSC2,1*%
X52539837Y42012243D03*
D13*
%TO.P,OSC2,4*%
%TO.N,N/C*%
X54394037Y35001843D03*
%TO.P,OSC2,5*%
X45605637Y35001843D03*
%TD*%
%TO.P,OSC3,5*%
%TO.N,N/C*%
X85605637Y35001843D03*
%TO.P,OSC3,4*%
X94394037Y35001843D03*
D14*
%TO.P,OSC3,1*%
%TO.N,Net-(C27-Pad1)*%
X92539837Y42012243D03*
%TO.P,OSC3,2*%
X89999837Y42012243D03*
%TO.P,OSC3,3*%
%TO.N,Net-(J10-Pad1)*%
X87459837Y42012243D03*
%TD*%
D19*
%TO.P,VREG1,1*%
%TO.N,Net-(C1-Pad1)*%
X147828000Y29464000D03*
D18*
%TO.P,VREG1,2*%
%TO.N,GND*%
X147828000Y26924000D03*
%TO.P,VREG1,3*%
%TO.N,+5V*%
X147828000Y24384000D03*
%TD*%
D10*
%TO.P,R17,1*%
%TO.N,Net-(ATTACK3-Pad2)*%
X92456000Y76962000D03*
%TO.P,R17,2*%
%TO.N,Net-(DECAY3-Pad1)*%
X92456000Y69342000D03*
%TD*%
%TO.P,R16,2*%
%TO.N,Net-(DECAY2-Pad1)*%
X52578000Y69342000D03*
%TO.P,R16,1*%
%TO.N,Net-(ATTACK2-Pad2)*%
X52578000Y76962000D03*
%TD*%
%TO.P,R18,1*%
%TO.N,Net-(J5-Pad1)*%
X140000000Y88810000D03*
%TO.P,R18,2*%
%TO.N,Net-(R18-Pad2)*%
X140000000Y81190000D03*
%TD*%
%TO.P,R14,2*%
%TO.N,Net-(LEDSW3-Pad7)*%
X83140000Y26924000D03*
%TO.P,R14,1*%
%TO.N,Net-(R14-Pad1)*%
X90760000Y26924000D03*
%TD*%
%TO.P,R13,1*%
%TO.N,Net-(R13-Pad1)*%
X50760000Y26924000D03*
%TO.P,R13,2*%
%TO.N,Net-(LEDSW2-Pad7)*%
X43140000Y26924000D03*
%TD*%
%TO.P,R12,2*%
%TO.N,Net-(LEDSW1-Pad7)*%
X3140000Y26990000D03*
%TO.P,R12,1*%
%TO.N,Net-(R12-Pad1)*%
X10760000Y26990000D03*
%TD*%
%TO.P,R11,1*%
%TO.N,Net-(D4-Pad2)*%
X110998000Y69088000D03*
%TO.P,R11,2*%
%TO.N,Net-(R11-Pad2)*%
X110998000Y76708000D03*
%TD*%
%TO.P,R10,2*%
%TO.N,Net-(R10-Pad2)*%
X71120000Y76708000D03*
%TO.P,R10,1*%
%TO.N,Net-(D3-Pad2)*%
X71120000Y69088000D03*
%TD*%
%TO.P,R9,1*%
%TO.N,Net-(D2-Pad2)*%
X30734000Y69342000D03*
%TO.P,R9,2*%
%TO.N,Net-(R4-Pad1)*%
X30734000Y76962000D03*
%TD*%
%TO.P,R8,2*%
%TO.N,GND*%
X127000000Y29210000D03*
%TO.P,R8,1*%
%TO.N,2.5v*%
X127000000Y21590000D03*
%TD*%
%TO.P,R7,1*%
%TO.N,+5V*%
X138938000Y20574000D03*
%TO.P,R7,2*%
%TO.N,2.5v*%
X131318000Y20574000D03*
%TD*%
%TO.P,R6,2*%
%TO.N,GND*%
X102500000Y59190000D03*
%TO.P,R6,1*%
%TO.N,Net-(R11-Pad2)*%
X102500000Y66810000D03*
%TD*%
%TO.P,R5,1*%
%TO.N,Net-(R10-Pad2)*%
X62484000Y66810000D03*
%TO.P,R5,2*%
%TO.N,GND*%
X62484000Y59190000D03*
%TD*%
%TO.P,R4,2*%
%TO.N,GND*%
X22500000Y59190000D03*
%TO.P,R4,1*%
%TO.N,Net-(R4-Pad1)*%
X22500000Y66810000D03*
%TD*%
%TO.P,R2,2*%
%TO.N,Net-(R2-Pad2)*%
X60000000Y81190000D03*
%TO.P,R2,1*%
%TO.N,Net-(J2-Pad1)*%
X60000000Y88810000D03*
%TD*%
%TO.P,R1,1*%
%TO.N,Net-(J1-Pad1)*%
X20000000Y88810000D03*
%TO.P,R1,2*%
%TO.N,Net-(R1-Pad2)*%
X20000000Y81190000D03*
%TD*%
%TO.P,R15,2*%
%TO.N,Net-(DECAY1-Pad1)*%
X12520000Y69290000D03*
%TO.P,R15,1*%
%TO.N,Net-(ATTACK1-Pad2)*%
X12520000Y76910000D03*
%TD*%
%TO.P,R19,1*%
%TO.N,Net-(R19-Pad1)*%
X142500000Y66810000D03*
%TO.P,R19,2*%
%TO.N,GND*%
X142500000Y59190000D03*
%TD*%
%TO.P,R20,2*%
%TO.N,Net-(R19-Pad1)*%
X152654000Y76708000D03*
%TO.P,R20,1*%
%TO.N,Net-(D5-Pad2)*%
X152654000Y69088000D03*
%TD*%
%TO.P,R21,1*%
%TO.N,Net-(C10-Pad1)*%
X33528000Y28956000D03*
%TO.P,R21,2*%
%TO.N,Net-(C18-Pad2)*%
X25908000Y28956000D03*
%TD*%
%TO.P,R22,2*%
%TO.N,Net-(C19-Pad2)*%
X65786000Y27940000D03*
%TO.P,R22,1*%
%TO.N,Net-(C11-Pad1)*%
X73406000Y27940000D03*
%TD*%
%TO.P,R23,1*%
%TO.N,Net-(C12-Pad1)*%
X113284000Y27432000D03*
%TO.P,R23,2*%
%TO.N,Net-(C20-Pad2)*%
X105664000Y27432000D03*
%TD*%
%TO.P,R24,2*%
%TO.N,Net-(C21-Pad2)*%
X26162000Y7190000D03*
%TO.P,R24,1*%
%TO.N,Net-(C13-Pad1)*%
X26162000Y14810000D03*
%TD*%
%TO.P,R25,1*%
%TO.N,Net-(C14-Pad1)*%
X66040000Y14810000D03*
%TO.P,R25,2*%
%TO.N,Net-(C22-Pad2)*%
X66040000Y7190000D03*
%TD*%
%TO.P,R49,2*%
%TO.N,Net-(C32-Pad2)*%
X186182000Y4826000D03*
%TO.P,R49,1*%
%TO.N,Net-(R49-Pad1)*%
X186182000Y12446000D03*
%TD*%
%TO.P,R48,1*%
%TO.N,Net-(C32-Pad1)*%
X155194000Y51054000D03*
%TO.P,R48,2*%
%TO.N,Net-(R48-Pad2)*%
X147574000Y51054000D03*
%TD*%
%TO.P,R47,2*%
%TO.N,Net-(R47-Pad2)*%
X193802000Y39370000D03*
%TO.P,R47,1*%
%TO.N,Net-(R47-Pad1)*%
X193802000Y46990000D03*
%TD*%
%TO.P,R46,1*%
%TO.N,Net-(R46-Pad1)*%
X193802000Y64262000D03*
%TO.P,R46,2*%
%TO.N,Net-(R46-Pad2)*%
X193802000Y56642000D03*
%TD*%
%TO.P,R45,2*%
%TO.N,Net-(R45-Pad2)*%
X193802000Y73914000D03*
%TO.P,R45,1*%
%TO.N,Net-(R45-Pad1)*%
X193802000Y81534000D03*
%TD*%
%TO.P,R44,1*%
%TO.N,Net-(R44-Pad1)*%
X193802000Y29718000D03*
%TO.P,R44,2*%
%TO.N,Net-(R44-Pad2)*%
X193802000Y22098000D03*
%TD*%
%TO.P,R43,2*%
%TO.N,Net-(R39-Pad2)*%
X187198000Y37338000D03*
%TO.P,R43,1*%
%TO.N,Net-(R43-Pad1)*%
X194818000Y37338000D03*
%TD*%
%TO.P,R26,1*%
%TO.N,Net-(C15-Pad1)*%
X106172000Y14810000D03*
%TO.P,R26,2*%
%TO.N,Net-(C23-Pad2)*%
X106172000Y7190000D03*
%TD*%
%TO.P,R27,2*%
%TO.N,Net-(DECAY4-Pad1)*%
X132588000Y69342000D03*
%TO.P,R27,1*%
%TO.N,Net-(ATTACK4-Pad2)*%
X132588000Y76962000D03*
%TD*%
%TO.P,R28,1*%
%TO.N,Net-(C18-Pad1)*%
X22352000Y40386000D03*
%TO.P,R28,2*%
%TO.N,Net-(R28-Pad2)*%
X29972000Y40386000D03*
%TD*%
%TO.P,R29,2*%
%TO.N,Net-(R29-Pad2)*%
X70104000Y40386000D03*
%TO.P,R29,1*%
%TO.N,Net-(C19-Pad1)*%
X62484000Y40386000D03*
%TD*%
%TO.P,R30,1*%
%TO.N,Net-(C20-Pad1)*%
X97536000Y30480000D03*
%TO.P,R30,2*%
%TO.N,Net-(R30-Pad2)*%
X105156000Y30480000D03*
%TD*%
%TO.P,R31,2*%
%TO.N,Net-(R31-Pad2)*%
X18500000Y14810000D03*
%TO.P,R31,1*%
%TO.N,Net-(C21-Pad1)*%
X18500000Y7190000D03*
%TD*%
%TO.P,R32,1*%
%TO.N,Net-(C22-Pad1)*%
X58420000Y7190000D03*
%TO.P,R32,2*%
%TO.N,Net-(R32-Pad2)*%
X58420000Y14810000D03*
%TD*%
%TO.P,R33,2*%
%TO.N,Net-(R33-Pad2)*%
X98552000Y14810000D03*
%TO.P,R33,1*%
%TO.N,Net-(C23-Pad1)*%
X98552000Y7190000D03*
%TD*%
%TO.P,R34,1*%
%TO.N,Net-(C24-Pad1)*%
X120650000Y50292000D03*
%TO.P,R34,2*%
%TO.N,Net-(Q1-Pad2)*%
X128270000Y50292000D03*
%TD*%
%TO.P,R35,2*%
%TO.N,Net-(R35-Pad2)*%
X120904000Y38100000D03*
%TO.P,R35,1*%
%TO.N,Net-(C31-Pad1)*%
X120904000Y45720000D03*
%TD*%
%TO.P,R36,1*%
%TO.N,Net-(R36-Pad1)*%
X184810000Y20000000D03*
%TO.P,R36,2*%
%TO.N,Net-(C31-Pad2)*%
X177190000Y20000000D03*
%TD*%
%TO.P,R37,2*%
%TO.N,Net-(R37-Pad2)*%
X187452000Y72136000D03*
%TO.P,R37,1*%
%TO.N,Net-(J8-Pad2)*%
X195072000Y72136000D03*
%TD*%
%TO.P,R38,1*%
%TO.N,Net-(J9-Pad2)*%
X177190000Y54102000D03*
%TO.P,R38,2*%
%TO.N,Net-(R38-Pad2)*%
X184810000Y54102000D03*
%TD*%
%TO.P,R39,2*%
%TO.N,Net-(R39-Pad2)*%
X187198000Y34798000D03*
%TO.P,R39,1*%
%TO.N,Net-(J10-Pad2)*%
X194818000Y34798000D03*
%TD*%
%TO.P,R40,1*%
%TO.N,Net-(R40-Pad1)*%
X177190000Y22352000D03*
%TO.P,R40,2*%
%TO.N,Net-(R36-Pad1)*%
X184810000Y22352000D03*
%TD*%
%TO.P,R41,2*%
%TO.N,Net-(R37-Pad2)*%
X187452000Y69596000D03*
%TO.P,R41,1*%
%TO.N,Net-(R41-Pad1)*%
X195072000Y69596000D03*
%TD*%
%TO.P,R42,1*%
%TO.N,Net-(R42-Pad1)*%
X177190000Y56388000D03*
%TO.P,R42,2*%
%TO.N,Net-(R38-Pad2)*%
X184810000Y56388000D03*
%TD*%
D20*
%TO.P,SW1,1*%
%TO.N,Net-(SW1-Pad1)*%
X30000000Y12540000D03*
%TO.P,SW1,2*%
%TO.N,+5V*%
X30000000Y10000000D03*
%TO.P,SW1,3*%
%TO.N,Net-(J1-Pad1)*%
X30000000Y7460000D03*
%TD*%
%TO.P,SW2,3*%
%TO.N,Net-(J2-Pad1)*%
X70000000Y7460000D03*
%TO.P,SW2,2*%
%TO.N,+5V*%
X70000000Y10000000D03*
%TO.P,SW2,1*%
%TO.N,Net-(SW2-Pad1)*%
X70000000Y12540000D03*
%TD*%
%TO.P,SW3,1*%
%TO.N,Net-(SW3-Pad1)*%
X110000000Y12540000D03*
%TO.P,SW3,2*%
%TO.N,+5V*%
X110000000Y10000000D03*
%TO.P,SW3,3*%
%TO.N,Net-(J3-Pad1)*%
X110000000Y7460000D03*
%TD*%
%TO.P,SW4,3*%
%TO.N,Net-(SW4-Pad3)*%
X182540000Y95000000D03*
%TO.P,SW4,2*%
%TO.N,Net-(J4-Pad1)*%
X180000000Y95000000D03*
%TO.P,SW4,1*%
%TO.N,Net-(D1-Pad2)*%
X177460000Y95000000D03*
%TD*%
%TO.P,SW8,3*%
%TO.N,Net-(J5-Pad1)*%
X150000000Y7460000D03*
%TO.P,SW8,2*%
%TO.N,+5V*%
X150000000Y10000000D03*
%TO.P,SW8,1*%
%TO.N,Net-(SW8-Pad1)*%
X150000000Y12540000D03*
%TD*%
%TO.P,SW9,1*%
%TO.N,Net-(C7-Pad1)*%
X30000000Y62540000D03*
%TO.P,SW9,2*%
%TO.N,Net-(ATTACK1-Pad2)*%
X30000000Y60000000D03*
%TO.P,SW9,3*%
%TO.N,Net-(C4-Pad2)*%
X30000000Y57460000D03*
%TD*%
%TO.P,SW10,3*%
%TO.N,Net-(C5-Pad2)*%
X70000000Y57460000D03*
%TO.P,SW10,2*%
%TO.N,Net-(ATTACK2-Pad2)*%
X70000000Y60000000D03*
%TO.P,SW10,1*%
%TO.N,Net-(C8-Pad1)*%
X70000000Y62540000D03*
%TD*%
%TO.P,SW11,1*%
%TO.N,Net-(C9-Pad1)*%
X110000000Y62540000D03*
%TO.P,SW11,2*%
%TO.N,Net-(ATTACK3-Pad2)*%
X110000000Y60000000D03*
%TO.P,SW11,3*%
%TO.N,Net-(C6-Pad2)*%
X110000000Y57460000D03*
%TD*%
%TO.P,SW13,1*%
%TO.N,Net-(C17-Pad1)*%
X150000000Y62540000D03*
%TO.P,SW13,2*%
%TO.N,Net-(ATTACK4-Pad2)*%
X150000000Y60000000D03*
%TO.P,SW13,3*%
%TO.N,Net-(C16-Pad2)*%
X150000000Y57460000D03*
%TD*%
%TO.P,SW14,3*%
%TO.N,Net-(R31-Pad2)*%
X30000000Y32460000D03*
%TO.P,SW14,2*%
%TO.N,Net-(C25-Pad2)*%
X30000000Y35000000D03*
%TO.P,SW14,1*%
%TO.N,Net-(R28-Pad2)*%
X30000000Y37540000D03*
%TD*%
%TO.P,SW15,1*%
%TO.N,Net-(R29-Pad2)*%
X70000000Y37540000D03*
%TO.P,SW15,2*%
%TO.N,Net-(C26-Pad2)*%
X70000000Y35000000D03*
%TO.P,SW15,3*%
%TO.N,Net-(R32-Pad2)*%
X70000000Y32460000D03*
%TD*%
%TO.P,SW16,3*%
%TO.N,Net-(R33-Pad2)*%
X110000000Y32460000D03*
%TO.P,SW16,2*%
%TO.N,Net-(C27-Pad2)*%
X110000000Y35000000D03*
%TO.P,SW16,1*%
%TO.N,Net-(R30-Pad2)*%
X110000000Y37540000D03*
%TD*%
%TO.P,SW17,1*%
%TO.N,Net-(R44-Pad1)*%
X190000000Y29790000D03*
%TO.P,SW17,2*%
%TO.N,Net-(R48-Pad2)*%
X190000000Y27250000D03*
%TO.P,SW17,3*%
%TO.N,Net-(SW17-Pad3)*%
X190000000Y24710000D03*
%TD*%
%TO.P,SW18,3*%
%TO.N,Net-(SW18-Pad3)*%
X190000000Y76460000D03*
%TO.P,SW18,2*%
%TO.N,Net-(R48-Pad2)*%
X190000000Y79000000D03*
%TO.P,SW18,1*%
%TO.N,Net-(R45-Pad1)*%
X190000000Y81540000D03*
%TD*%
%TO.P,SW19,1*%
%TO.N,Net-(R46-Pad1)*%
X190000000Y64290000D03*
%TO.P,SW19,2*%
%TO.N,Net-(R48-Pad2)*%
X190000000Y61750000D03*
%TO.P,SW19,3*%
%TO.N,Net-(SW19-Pad3)*%
X190000000Y59210000D03*
%TD*%
%TO.P,SW20,3*%
%TO.N,Net-(SW20-Pad3)*%
X190000000Y41960000D03*
%TO.P,SW20,2*%
%TO.N,Net-(R48-Pad2)*%
X190000000Y44500000D03*
%TO.P,SW20,1*%
%TO.N,Net-(R47-Pad1)*%
X190000000Y47040000D03*
%TD*%
%TO.P,SW21,1*%
%TO.N,Net-(R49-Pad1)*%
X190000000Y12540000D03*
%TO.P,SW21,2*%
%TO.N,Net-(MASTERV1-Pad1)*%
X190000000Y10000000D03*
%TO.P,SW21,3*%
%TO.N,Net-(SW21-Pad3)*%
X190000000Y7460000D03*
%TD*%
D21*
%TO.P,Q1,1*%
%TO.N,GND*%
X132139362Y51562000D03*
D22*
%TO.P,Q1,3*%
%TO.N,Net-(D6-Pad1)*%
X132139362Y49022000D03*
%TO.P,Q1,2*%
%TO.N,Net-(Q1-Pad2)*%
X130869362Y50292000D03*
%TD*%
D15*
%TO.P,J4,1*%
%TO.N,Net-(J4-Pad1)*%
X194056000Y94996000D03*
%TO.P,J4,2*%
%TO.N,GND*%
X196596000Y94996000D03*
%TO.P,J4,*%
%TO.N,*%
X194056000Y96901000D03*
X196596000Y96901000D03*
%TD*%
%TO.P,J1,*%
%TO.N,*%
X17520000Y96905000D03*
X14980000Y96905000D03*
%TO.P,J1,2*%
%TO.N,GND*%
X17520000Y95000000D03*
%TO.P,J1,1*%
%TO.N,Net-(J1-Pad1)*%
X14980000Y95000000D03*
%TD*%
%TO.P,J2,1*%
%TO.N,Net-(J2-Pad1)*%
X54980000Y95000000D03*
%TO.P,J2,2*%
%TO.N,GND*%
X57520000Y95000000D03*
%TO.P,J2,*%
%TO.N,*%
X54980000Y96905000D03*
X57520000Y96905000D03*
%TD*%
%TO.P,J3,*%
%TO.N,*%
X97520000Y96905000D03*
X94980000Y96905000D03*
%TO.P,J3,2*%
%TO.N,GND*%
X97520000Y95000000D03*
%TO.P,J3,1*%
%TO.N,Net-(J3-Pad1)*%
X94980000Y95000000D03*
%TD*%
%TO.P,J5,1*%
%TO.N,Net-(J5-Pad1)*%
X136230000Y95000000D03*
%TO.P,J5,2*%
%TO.N,GND*%
X138770000Y95000000D03*
%TO.P,J5,*%
%TO.N,*%
X136230000Y96905000D03*
X138770000Y96905000D03*
%TD*%
%TO.P,J6,*%
%TO.N,*%
X143770000Y96905000D03*
X141230000Y96905000D03*
%TO.P,J6,2*%
%TO.N,GND*%
X143770000Y95000000D03*
%TO.P,J6,1*%
%TO.N,Net-(C24-Pad1)*%
X141230000Y95000000D03*
%TD*%
%TO.P,J7,1*%
%TO.N,Net-(J7-Pad1)*%
X164730000Y95000000D03*
%TO.P,J7,2*%
%TO.N,GND*%
X167270000Y95000000D03*
%TO.P,J7,*%
%TO.N,*%
X164730000Y96905000D03*
X167270000Y96905000D03*
%TD*%
D23*
%TO.N,Net-(J7-Pad1)*%
X179578000Y18034000D03*
X175260000Y55118000D03*
X161544000Y55118000D03*
X161544000Y81753989D03*
X164846000Y81788000D03*
%TO.N,GND*%
X163575988Y74676000D03*
X163576000Y39878000D03*
X163575988Y57404000D03*
X152146000Y27218000D03*
X152159010Y47993862D03*
X129999837Y57404000D03*
X83566000Y49530000D03*
X84836000Y17018000D03*
X100000000Y62484000D03*
X57417010Y30480000D03*
X53340000Y30480000D03*
X47498006Y94224990D03*
X143764000Y87122000D03*
X138683990Y87122000D03*
X127508008Y87122000D03*
X105156000Y87122000D03*
X97536000Y87122010D03*
X87376000Y87122000D03*
X146558000Y94996000D03*
X1524014Y71374000D03*
X1524004Y67056000D03*
X1524000Y49784000D03*
X65277990Y87122000D03*
X44958000Y17018000D03*
X155702000Y17018000D03*
X1524000Y17018000D03*
X1524000Y91948002D03*
X102362000Y62484000D03*
X167132000Y92710000D03*
X142500000Y51562000D03*
X142494000Y48006000D03*
X57657992Y87122000D03*
X47498000Y87122010D03*
X7366000Y90170000D03*
X17526000Y90170000D03*
X17526000Y92964000D03*
X25146000Y92964000D03*
X129999837Y62484000D03*
X137414000Y62484000D03*
X142494000Y62484000D03*
X130048000Y51562000D03*
X17526000Y49500000D03*
X62484000Y49500000D03*
X57404000Y49500000D03*
X62484000Y62484000D03*
X74168000Y49500000D03*
X114300000Y49530000D03*
X34290000Y49530000D03*
X22352000Y49500000D03*
X22606000Y62484000D03*
X17272000Y71374000D03*
X5080000Y17018000D03*
X124968000Y26670000D03*
X127000000Y26670000D03*
%TO.N,Net-(C24-Pad1)*%
X120650000Y93472000D03*
X151638000Y93726000D03*
%TO.N,Net-(J5-Pad1)*%
X122682000Y88900000D03*
X123444000Y14478000D03*
X136144000Y92012243D03*
X139954000Y91948000D03*
X143256000Y7366000D03*
X143256000Y14478000D03*
X130048000Y14478000D03*
%TO.N,Net-(J3-Pad1)*%
X79248000Y94996000D03*
X79248000Y13716000D03*
X94996000Y92012243D03*
X100076000Y91948000D03*
%TO.N,Net-(J2-Pad1)*%
X41910000Y94996000D03*
X41402000Y13970002D03*
X59944000Y91948000D03*
%TO.N,Net-(J1-Pad1)*%
X3474019Y74477263D03*
X8636000Y29210000D03*
X3302000Y29210000D03*
X11430000Y74422000D03*
X19812000Y91948000D03*
%TO.N,Net-(J4-Pad1)*%
X194056000Y91439998D03*
X180086000Y91440000D03*
%TO.N,Net-(MASTERV1-Pad1)*%
X172466000Y12700000D03*
%TO.N,Net-(R48-Pad2)*%
X153162000Y51054000D03*
X192024000Y44450000D03*
X192024000Y61722000D03*
X192024000Y27178000D03*
X192024000Y78994000D03*
%TO.N,Net-(R33-Pad2)*%
X109982000Y19050000D03*
%TO.N,Net-(R30-Pad2)*%
X104140004Y37592000D03*
X96520000Y37592000D03*
%TO.N,Net-(R29-Pad2)*%
X56642000Y37592000D03*
%TO.N,Net-(R32-Pad2)*%
X58420000Y19558000D03*
X70104000Y19558000D03*
%TO.N,Net-(R31-Pad2)*%
X29718000Y19558000D03*
X18542000Y19558000D03*
%TO.N,Net-(R28-Pad2)*%
X16764000Y37592000D03*
%TO.N,Net-(ATTACK4-Pad2)*%
X151384000Y40386000D03*
X148082000Y78232000D03*
%TO.N,+5V*%
X182660013Y67056000D03*
X39623974Y73660000D03*
X78231994Y73660000D03*
X118364000Y73660000D03*
X65024000Y73660000D03*
X104902000Y73660000D03*
X145034000Y73660000D03*
X24892000Y73660000D03*
X39624000Y9906000D03*
X39624000Y2032000D03*
X39624000Y12446000D03*
X1778000Y12700000D03*
X1778000Y2032000D03*
X118364000Y2032000D03*
X78232000Y2032000D03*
X78232000Y12446000D03*
X78232000Y9906000D03*
X182626000Y32258000D03*
X161544000Y24384000D03*
X161544000Y40132000D03*
X184912000Y24384000D03*
X118364000Y9906000D03*
X118364000Y12446000D03*
X127508000Y18542000D03*
X138938000Y18542000D03*
%TO.N,Net-(ATTACK3-Pad2)*%
X107696000Y78740000D03*
X108204000Y60198000D03*
X101854000Y78740000D03*
X101841000Y91948000D03*
%TO.N,Net-(ATTACK2-Pad2)*%
X67818000Y78994000D03*
X57404000Y78994000D03*
X67818000Y59944000D03*
%TO.N,Net-(ATTACK1-Pad2)*%
X27686000Y78232000D03*
X27686000Y59944000D03*
X17272000Y78232000D03*
%TO.N,Net-(D1-Pad2)*%
X177546000Y91440002D03*
X160528000Y91440000D03*
X133604000Y34798000D03*
X140462000Y34798000D03*
X140462002Y65024002D03*
X160528000Y65024000D03*
%TO.N,Net-(R42-Pad1)*%
X172720000Y56388000D03*
X172466000Y71882000D03*
%TO.N,Net-(R38-Pad2)*%
X180353010Y69596000D03*
X180337845Y56337434D03*
%TO.N,Net-(R41-Pad1)*%
X185166000Y85852000D03*
X189230000Y69596000D03*
X189230000Y74676000D03*
%TO.N,Net-(R40-Pad1)*%
X172466000Y22352000D03*
X172466000Y37338000D03*
%TO.N,Net-(R36-Pad1)*%
X180848000Y22352000D03*
X180848000Y34798000D03*
%TO.N,Net-(C31-Pad2)*%
X126746000Y37846000D03*
X163068000Y37592000D03*
X163068000Y19812000D03*
%TO.N,Net-(R35-Pad2)*%
X121666000Y74930000D03*
X139954000Y74930000D03*
%TO.N,Net-(C23-Pad1)*%
X100838000Y7112000D03*
%TO.N,Net-(C22-Pad1)*%
X60960000Y7112000D03*
%TO.N,Net-(C21-Pad1)*%
X20828000Y7366000D03*
%TO.N,Net-(C19-Pad1)*%
X58420000Y40386000D03*
%TO.N,Net-(C18-Pad1)*%
X18288000Y40386000D03*
%TO.N,Net-(C15-Pad1)*%
X114808000Y44450000D03*
X114808000Y17018000D03*
X100076000Y44450000D03*
%TO.N,Net-(C23-Pad2)*%
X106172000Y4064000D03*
%TO.N,Net-(R43-Pad1)*%
X184912000Y51562000D03*
X189230000Y39878000D03*
X189230000Y37338002D03*
%TO.N,Net-(R44-Pad2)*%
X186690000Y22352000D03*
X186436000Y29210000D03*
X170180000Y29464000D03*
%TO.N,Net-(R45-Pad2)*%
X195580000Y84074000D03*
%TO.N,Net-(R46-Pad2)*%
X169926000Y57658000D03*
%TO.N,Net-(R47-Pad2)*%
X195834000Y49022000D03*
%TO.N,Net-(C32-Pad2)*%
X160020000Y5080000D03*
%TO.N,Net-(C14-Pad1)*%
X75184000Y43942000D03*
X75184000Y17017998D03*
X60198000Y43942000D03*
%TO.N,Net-(C22-Pad2)*%
X63420000Y7112000D03*
%TO.N,Net-(C21-Pad2)*%
X23621998Y7112000D03*
%TO.N,Net-(C13-Pad1)*%
X35305994Y17018000D03*
X35306000Y44196000D03*
X20066000Y44196000D03*
%TO.N,Net-(C12-Pad1)*%
X113284000Y46990000D03*
X113284000Y24638000D03*
%TO.N,Net-(C11-Pad1)*%
X73406000Y46990000D03*
X73406000Y24638000D03*
%TO.N,Net-(C10-Pad1)*%
X33528000Y24638000D03*
X33528000Y46990000D03*
%TO.N,Net-(R19-Pad1)*%
X142494000Y71374000D03*
X152654000Y71374000D03*
%TO.N,Net-(R1-Pad2)*%
X19812000Y72644000D03*
X10160000Y72644000D03*
X10160000Y81280000D03*
%TO.N,Net-(R2-Pad2)*%
X59944000Y71882000D03*
X50038000Y71882000D03*
X50038000Y81280000D03*
%TO.N,Net-(R3-Pad2)*%
X99822000Y72644000D03*
X90170000Y72760000D03*
X90170000Y81280000D03*
%TO.N,Net-(R4-Pad1)*%
X30734000Y71628000D03*
X22352000Y71628000D03*
%TO.N,Net-(R10-Pad2)*%
X71120000Y72390000D03*
X62484000Y72390000D03*
%TO.N,Net-(R11-Pad2)*%
X102362000Y72136000D03*
X110998000Y72136000D03*
%TO.N,2.5v*%
X136017000Y24257000D03*
X136080500Y32893000D03*
X153416000Y33020000D03*
X153225500Y42989500D03*
%TO.N,Net-(D4-Pad2)*%
X110998000Y67056000D03*
X105156000Y67056000D03*
%TO.N,Net-(R18-Pad2)*%
X130048000Y70866000D03*
X130048000Y81280000D03*
%TO.N,Net-(C27-Pad1)*%
X116078006Y20574000D03*
X116078000Y42164000D03*
X100838000Y42164000D03*
%TO.N,Net-(C26-Pad1)*%
X49022000Y19558000D03*
X55880000Y19558000D03*
X60706000Y41910000D03*
%TO.N,Net-(C25-Pad1)*%
X15748000Y15240000D03*
X6604000Y15240000D03*
X6604000Y31750000D03*
X20828000Y31750000D03*
X20574000Y41910000D03*
%TO.N,2.5v*%
X167459837Y41910000D03*
X181610000Y67055998D03*
X181609998Y69596000D03*
X167386000Y67056000D03*
X167386000Y32004000D03*
%TO.N,Net-(ATTACK4-Pad1)*%
X156464000Y91948008D03*
%TO.N,Net-(LEDSW3-Pad7)*%
X83058000Y14478000D03*
X94996000Y14478000D03*
%TO.N,Net-(LEDSW2-Pad7)*%
X43180000Y8382000D03*
%TO.N,Net-(LEDSW1-Pad7)*%
X3302000Y11430000D03*
%TO.N,Net-(J10-Pad1)*%
X81534000Y41910000D03*
X81534000Y79756000D03*
X98044000Y79756000D03*
%TO.N,Net-(J8-Pad1)*%
X2540000Y79755988D03*
X2299010Y42164000D03*
X18288000Y79756000D03*
%TO.N,Net-(J9-Pad1)*%
X40626990Y90424000D03*
X40626990Y41910000D03*
X60960000Y90423992D03*
%TO.N,Net-(J10-Pad2)*%
X80264000Y78486000D03*
X80264000Y19304000D03*
X93218000Y19304000D03*
X102629010Y79756000D03*
X163068000Y83058000D03*
X163068000Y79756000D03*
X197625000Y83058000D03*
%TO.N,Net-(J8-Pad2)*%
X161544000Y88388010D03*
X161544000Y82803992D03*
X15748000Y38607998D03*
X16002000Y82549988D03*
X22606000Y82804000D03*
X7874000Y38608000D03*
X7620000Y19050000D03*
X13208000Y19050000D03*
X196850000Y88138000D03*
%TO.N,Net-(J9-Pad2)*%
X77216000Y13970000D03*
X77216000Y87897000D03*
X54610000Y12192000D03*
X179324000Y89916000D03*
X62738000Y87897000D03*
%TD*%
D24*
%TO.N,Net-(J7-Pad1)*%
X169999837Y17012243D02*
X171783594Y18796000D01*
X171783594Y18796000D02*
X173482000Y18796000D01*
X173482000Y18796000D02*
X174244000Y18034000D01*
X174244000Y18034000D02*
X179578000Y18034000D01*
X161544000Y55118000D02*
X175260000Y55118000D01*
X164846000Y81788000D02*
X161578011Y81788000D01*
X161578011Y81788000D02*
X161544000Y81753989D01*
%TO.N,GND*%
X177546000Y74676000D02*
X163575988Y74676000D01*
X177292000Y39878000D02*
X163576000Y39878000D01*
X154178000Y57484000D02*
X163495988Y57484000D01*
X163495988Y57484000D02*
X163575988Y57404000D01*
D25*
X155702000Y27218000D02*
X152146000Y27218000D01*
X152146000Y27218000D02*
X148122000Y27218000D01*
D24*
X147574000Y48006000D02*
X152146872Y48006000D01*
X152146872Y48006000D02*
X152159010Y47993862D01*
X129919837Y57484000D02*
X129999837Y57404000D01*
X114300000Y57484000D02*
X129919837Y57484000D01*
X142494000Y48006000D02*
X147574000Y48006000D01*
X83596000Y49500000D02*
X83566000Y49530000D01*
X90000000Y49500000D02*
X83596000Y49500000D01*
X83536000Y49500000D02*
X83566000Y49530000D01*
X74168000Y49500000D02*
X83536000Y49500000D01*
X84836000Y17018000D02*
X90742000Y17018000D01*
X90742000Y17018000D02*
X90760000Y17000000D01*
X102362000Y62484000D02*
X100000000Y62484000D01*
X53340000Y30480000D02*
X57417010Y30480000D01*
X46932321Y94224990D02*
X47498006Y94224990D01*
X42282002Y94220998D02*
X42285994Y94224990D01*
X25921002Y94220998D02*
X42282002Y94220998D01*
X25146000Y94996000D02*
X25921002Y94220998D01*
X42285994Y94224990D02*
X46932321Y94224990D01*
X138683990Y87122000D02*
X143764000Y87122000D01*
X127508008Y87122000D02*
X138683990Y87122000D01*
X105156000Y87122000D02*
X127508008Y87122000D01*
X105155990Y87122010D02*
X105156000Y87122000D01*
X97536000Y87122010D02*
X105155990Y87122010D01*
X97535990Y87122000D02*
X97536000Y87122010D01*
X87376000Y87122000D02*
X97535990Y87122000D01*
X65277990Y87122000D02*
X87376000Y87122000D01*
X57657992Y87122000D02*
X65277990Y87122000D01*
X143770000Y95000000D02*
X146554000Y95000000D01*
X146554000Y95000000D02*
X146558000Y94996000D01*
X167132000Y92710000D02*
X156849002Y92710000D01*
X147123685Y94996000D02*
X146558000Y94996000D01*
X154563002Y94996000D02*
X147123685Y94996000D01*
X156849002Y92710000D02*
X154563002Y94996000D01*
X17272000Y71374000D02*
X1524014Y71374000D01*
X1567761Y67012243D02*
X1524004Y67056000D01*
X7459837Y67012243D02*
X1567761Y67012243D01*
X2089685Y49784000D02*
X1524000Y49784000D01*
X9970000Y49530000D02*
X9716000Y49784000D01*
X9716000Y49784000D02*
X2089685Y49784000D01*
X44976000Y17000000D02*
X44958000Y17018000D01*
X50760000Y17000000D02*
X44976000Y17000000D01*
X155702000Y17018000D02*
X167454080Y17018000D01*
X167454080Y17018000D02*
X167459837Y17012243D01*
X5080000Y17018000D02*
X1524000Y17018000D01*
X7459837Y92012243D02*
X1588241Y92012243D01*
X1588241Y92012243D02*
X1524000Y91948002D01*
X105664000Y62484000D02*
X102362000Y62484000D01*
X167697685Y92710000D02*
X167132000Y92710000D01*
X194310000Y92710000D02*
X167697685Y92710000D01*
X167154000Y92710000D02*
X167132000Y92710000D01*
X167270000Y92826000D02*
X167154000Y92710000D01*
X196596000Y94996000D02*
X194310000Y92710000D01*
X154178000Y57484000D02*
X154178000Y57404000D01*
X132139362Y51562000D02*
X142500000Y51562000D01*
X142500000Y48012000D02*
X142494000Y48006000D01*
X47498000Y87122010D02*
X57657982Y87122010D01*
X57657982Y87122010D02*
X57657992Y87122000D01*
X47498010Y87122000D02*
X57657992Y87122000D01*
X17526000Y90170000D02*
X7366000Y90170000D01*
X25146000Y92964000D02*
X17526000Y92964000D01*
X137414000Y62484000D02*
X129999837Y62484000D01*
X142494000Y62484000D02*
X137414000Y62484000D01*
X142494000Y62484000D02*
X145796000Y62484000D01*
X130048000Y51562000D02*
X132139362Y51562000D01*
X127459837Y67012243D02*
X128735033Y67012243D01*
X128735033Y67012243D02*
X129999837Y67012243D01*
X87459837Y67012243D02*
X88735033Y67012243D01*
X88735033Y67012243D02*
X89999837Y67012243D01*
X10000000Y49500000D02*
X17526000Y49500000D01*
X17526000Y49500000D02*
X20000000Y49500000D01*
X47459837Y67012243D02*
X48735033Y67012243D01*
X48735033Y67012243D02*
X49999837Y67012243D01*
X60000000Y49500000D02*
X62484000Y49500000D01*
X62484000Y49500000D02*
X70000000Y49500000D01*
X50000000Y49500000D02*
X57404000Y49500000D01*
X57404000Y49500000D02*
X60000000Y49500000D01*
X62484000Y62484000D02*
X65786000Y62484000D01*
X70000000Y49500000D02*
X74168000Y49500000D01*
X110000000Y49500000D02*
X114270000Y49500000D01*
X114270000Y49500000D02*
X114300000Y49530000D01*
X100000000Y49500000D02*
X110000000Y49500000D01*
X100000000Y49500000D02*
X90000000Y49500000D01*
X34290000Y49530000D02*
X49970000Y49530000D01*
X49970000Y49530000D02*
X50000000Y49500000D01*
X30000000Y49500000D02*
X34260000Y49500000D01*
X34260000Y49500000D02*
X34290000Y49530000D01*
X21131370Y49500000D02*
X22352000Y49500000D01*
X22352000Y49500000D02*
X30000000Y49500000D01*
X22606000Y62484000D02*
X25654000Y62484000D01*
X20000000Y49500000D02*
X21131370Y49500000D01*
X7459837Y67012243D02*
X8735033Y67012243D01*
X8735033Y67012243D02*
X9999837Y67012243D01*
X5080000Y17018000D02*
X10742000Y17018000D01*
X10742000Y17018000D02*
X10760000Y17000000D01*
D25*
X124968000Y26670000D02*
X127000000Y26670000D01*
X127000000Y26670000D02*
X131786000Y26670000D01*
X131786000Y26670000D02*
X131826000Y26630000D01*
X138938000Y26630000D02*
X131826000Y26630000D01*
X147828000Y26924000D02*
X139232000Y26924000D01*
X139232000Y26924000D02*
X138938000Y26630000D01*
X148122000Y27218000D02*
X147828000Y26924000D01*
D24*
X7459837Y92803837D02*
X7459837Y92012243D01*
%TO.N,Net-(C24-Pad1)*%
X121215685Y93472000D02*
X120650000Y93472000D01*
X139702000Y93472000D02*
X121215685Y93472000D01*
X141230000Y95000000D02*
X139702000Y93472000D01*
X141230000Y95000000D02*
X142517002Y93712998D01*
X142517002Y93712998D02*
X147184002Y93712998D01*
X147184002Y93712998D02*
X147197004Y93726000D01*
X147197004Y93726000D02*
X151072315Y93726000D01*
X151072315Y93726000D02*
X151638000Y93726000D01*
%TO.N,Net-(J5-Pad1)*%
X122772000Y88810000D02*
X122682000Y88900000D01*
X140000000Y88810000D02*
X122772000Y88810000D01*
X123444000Y14478000D02*
X130048000Y14478000D01*
X132539837Y92012243D02*
X136144000Y92012243D01*
X136144000Y92012243D02*
X139889757Y92012243D01*
X139889757Y92012243D02*
X139954000Y91948000D01*
D25*
X143256000Y7366000D02*
X149906000Y7366000D01*
X149906000Y7366000D02*
X150000000Y7460000D01*
X130048000Y14478000D02*
X143256000Y14478000D01*
D24*
%TO.N,Net-(J3-Pad1)*%
X79248000Y94996000D02*
X94976000Y94996000D01*
X94976000Y94996000D02*
X94980000Y95000000D01*
X90000000Y12540000D02*
X88862999Y13677001D01*
X79286999Y13677001D02*
X79248000Y13716000D01*
X88862999Y13677001D02*
X79286999Y13677001D01*
X90000000Y12540000D02*
X91137001Y11402999D01*
X91137001Y11402999D02*
X104675001Y11402999D01*
X104675001Y11402999D02*
X108618000Y7460000D01*
X108618000Y7460000D02*
X110000000Y7460000D01*
X92539837Y92012243D02*
X94996000Y92012243D01*
X94996000Y92012243D02*
X100011757Y92012243D01*
X100011757Y92012243D02*
X100076000Y91948000D01*
%TO.N,Net-(J2-Pad1)*%
X54980000Y95000000D02*
X41914000Y95000000D01*
X41914000Y95000000D02*
X41910000Y94996000D01*
X41967685Y13970002D02*
X41402000Y13970002D01*
X48569998Y13970002D02*
X41967685Y13970002D01*
X50000000Y12540000D02*
X48569998Y13970002D01*
X50000000Y12540000D02*
X51308000Y11232000D01*
X51308000Y11232000D02*
X64206000Y11232000D01*
X64206000Y11232000D02*
X67978000Y7460000D01*
X67978000Y7460000D02*
X70000000Y7460000D01*
X52539837Y92012243D02*
X59879757Y92012243D01*
X59879757Y92012243D02*
X59944000Y91948000D01*
%TO.N,Net-(J1-Pad1)*%
X3529282Y74422000D02*
X3474019Y74477263D01*
X11430000Y74422000D02*
X3529282Y74422000D01*
X30000000Y7460000D02*
X28100000Y7460000D01*
X28100000Y7460000D02*
X24384000Y11176000D01*
X11364000Y11176000D02*
X10000000Y12540000D01*
X24384000Y11176000D02*
X11364000Y11176000D01*
X3302000Y29210000D02*
X8636000Y29210000D01*
X12539837Y92012243D02*
X19747757Y92012243D01*
X19747757Y92012243D02*
X19812000Y91948000D01*
X14976000Y94996000D02*
X14980000Y95000000D01*
D25*
%TO.N,Net-(J4-Pad1)*%
X194055998Y91440000D02*
X194056000Y91439998D01*
X180086000Y91440000D02*
X194055998Y91440000D01*
D24*
%TO.N,Net-(Q1-Pad2)*%
X128270000Y50292000D02*
X130869362Y50292000D01*
%TO.N,Net-(R49-Pad1)*%
X186182000Y12446000D02*
X189906000Y12446000D01*
X189906000Y12446000D02*
X190000000Y12540000D01*
%TO.N,Net-(MASTERV1-Pad1)*%
X175768000Y12446000D02*
X172720000Y12446000D01*
X172720000Y12446000D02*
X172466000Y12700000D01*
X178214000Y10000000D02*
X175768000Y12446000D01*
X190000000Y10000000D02*
X178214000Y10000000D01*
%TO.N,Net-(R48-Pad2)*%
X147574000Y51054000D02*
X153162000Y51054000D01*
X190000000Y44500000D02*
X188234001Y46265999D01*
X188234001Y46265999D02*
X155993999Y46265999D01*
X155993999Y46265999D02*
X155194000Y45466000D01*
X191974000Y44500000D02*
X192024000Y44450000D01*
X190000000Y44500000D02*
X191974000Y44500000D01*
X190000000Y61750000D02*
X191996000Y61750000D01*
X191996000Y61750000D02*
X192024000Y61722000D01*
X192024000Y27178000D02*
X190072000Y27178000D01*
X190072000Y27178000D02*
X190000000Y27250000D01*
X190000000Y79000000D02*
X192018000Y79000000D01*
X192018000Y79000000D02*
X192024000Y78994000D01*
%TO.N,Net-(R47-Pad1)*%
X190000000Y47040000D02*
X193752000Y47040000D01*
X193752000Y47040000D02*
X193802000Y46990000D01*
%TO.N,Net-(R46-Pad1)*%
X190000000Y64290000D02*
X193774000Y64290000D01*
X193774000Y64290000D02*
X193802000Y64262000D01*
%TO.N,Net-(R45-Pad1)*%
X190000000Y81540000D02*
X193796000Y81540000D01*
X193796000Y81540000D02*
X193802000Y81534000D01*
%TO.N,Net-(R44-Pad1)*%
X190000000Y29790000D02*
X193730000Y29790000D01*
X193730000Y29790000D02*
X193802000Y29718000D01*
%TO.N,Net-(R33-Pad2)*%
X109982000Y19050000D02*
X100430000Y19050000D01*
X100430000Y19050000D02*
X98380000Y17000000D01*
%TO.N,Net-(C27-Pad2)*%
X105918000Y35052000D02*
X109948000Y35052000D01*
X109948000Y35052000D02*
X110000000Y35000000D01*
%TO.N,Net-(R30-Pad2)*%
X104192004Y37540000D02*
X104140004Y37592000D01*
X110000000Y37540000D02*
X104192004Y37540000D01*
X96520000Y37592000D02*
X104140004Y37592000D01*
%TO.N,Net-(R29-Pad2)*%
X56694000Y37540000D02*
X56642000Y37592000D01*
X70000000Y37540000D02*
X56694000Y37540000D01*
%TO.N,Net-(C26-Pad2)*%
X65786000Y35052000D02*
X69948000Y35052000D01*
X69948000Y35052000D02*
X70000000Y35000000D01*
%TO.N,Net-(R32-Pad2)*%
X70104000Y19558000D02*
X58420000Y19558000D01*
%TO.N,Net-(R31-Pad2)*%
X18542000Y19558000D02*
X29718000Y19558000D01*
%TO.N,Net-(C25-Pad2)*%
X25828000Y35052000D02*
X29948000Y35052000D01*
X29948000Y35052000D02*
X30000000Y35000000D01*
%TO.N,Net-(R28-Pad2)*%
X16764000Y37592000D02*
X29948000Y37592000D01*
X29948000Y37592000D02*
X30000000Y37540000D01*
%TO.N,Net-(C17-Pad1)*%
X150000000Y62540000D02*
X154122000Y62540000D01*
X154122000Y62540000D02*
X154178000Y62484000D01*
%TO.N,Net-(ATTACK4-Pad2)*%
X147574000Y40386000D02*
X151384000Y40386000D01*
X147516315Y78232000D02*
X148082000Y78232000D01*
X137380000Y76620000D02*
X138992000Y78232000D01*
X138992000Y78232000D02*
X147516315Y78232000D01*
X147459837Y92012243D02*
X149999837Y92012243D01*
X137380000Y76620000D02*
X132930000Y76620000D01*
X132930000Y76620000D02*
X132588000Y76962000D01*
%TO.N,Net-(C16-Pad2)*%
X145796000Y57484000D02*
X149976000Y57484000D01*
X149976000Y57484000D02*
X150000000Y57460000D01*
D25*
%TO.N,+5V*%
X185166000Y67056000D02*
X182660013Y67056000D01*
X24892000Y73660000D02*
X39623974Y73660000D01*
X65024000Y73660000D02*
X39623974Y73660000D01*
X39624000Y73660000D02*
X39623974Y73660000D01*
X104902000Y73660000D02*
X78231994Y73660000D01*
X65024000Y73660000D02*
X78231994Y73660000D01*
X104902000Y73660000D02*
X118364000Y73660000D01*
X118364000Y73660000D02*
X145034000Y73660000D01*
X30000000Y10000000D02*
X39530000Y10000000D01*
X39530000Y10000000D02*
X39624000Y9906000D01*
X78232000Y2032000D02*
X39624000Y2032000D01*
X39624000Y2032000D02*
X1778000Y2032000D01*
X47460000Y12540000D02*
X39718000Y12540000D01*
X39718000Y12540000D02*
X39624000Y12446000D01*
X1778000Y12700000D02*
X7300000Y12700000D01*
X7300000Y12700000D02*
X7460000Y12540000D01*
X78232000Y2032000D02*
X118364000Y2032000D01*
X78232000Y12446000D02*
X87366000Y12446000D01*
X87366000Y12446000D02*
X87460000Y12540000D01*
X70000000Y10000000D02*
X78138000Y10000000D01*
X78138000Y10000000D02*
X78232000Y9906000D01*
X184912000Y32258000D02*
X182626000Y32258000D01*
X147828000Y24384000D02*
X161544000Y24384000D01*
X161544000Y24384000D02*
X184912000Y24384000D01*
X155194000Y40386000D02*
X161290000Y40386000D01*
X161290000Y40386000D02*
X161544000Y40132000D01*
X118364000Y9906000D02*
X110094000Y9906000D01*
X110094000Y9906000D02*
X110000000Y10000000D01*
X127460000Y12540000D02*
X118458000Y12540000D01*
X118458000Y12540000D02*
X118364000Y12446000D01*
X138938000Y18542000D02*
X127508000Y18542000D01*
X147828000Y24384000D02*
X139192000Y24384000D01*
X139192000Y24384000D02*
X138938000Y24130000D01*
D24*
%TO.N,Net-(C9-Pad1)*%
X110000000Y62540000D02*
X114244000Y62540000D01*
X114244000Y62540000D02*
X114300000Y62484000D01*
%TO.N,Net-(ATTACK3-Pad2)*%
X107696000Y78740000D02*
X101854000Y78740000D01*
X110000000Y60000000D02*
X108402000Y60000000D01*
X108402000Y60000000D02*
X108204000Y60198000D01*
X101288315Y78740000D02*
X101854000Y78740000D01*
X99500000Y78740000D02*
X101288315Y78740000D01*
X97380000Y76620000D02*
X99500000Y78740000D01*
X107459837Y92012243D02*
X101905243Y92012243D01*
X101905243Y92012243D02*
X101841000Y91948000D01*
X109999837Y92012243D02*
X108724641Y92012243D01*
X108724641Y92012243D02*
X107459837Y92012243D01*
X92456000Y76962000D02*
X97038000Y76962000D01*
X97038000Y76962000D02*
X97380000Y76620000D01*
%TO.N,Net-(C6-Pad2)*%
X105664000Y57484000D02*
X109976000Y57484000D01*
X109976000Y57484000D02*
X110000000Y57460000D01*
%TO.N,Net-(C5-Pad2)*%
X65786000Y57484000D02*
X69976000Y57484000D01*
X69976000Y57484000D02*
X70000000Y57460000D01*
%TO.N,Net-(ATTACK2-Pad2)*%
X57404000Y78994000D02*
X67818000Y78994000D01*
X67818000Y59944000D02*
X69944000Y59944000D01*
X69944000Y59944000D02*
X70000000Y60000000D01*
X67459837Y92012243D02*
X68735033Y92012243D01*
X68735033Y92012243D02*
X69999837Y92012243D01*
X52578000Y76962000D02*
X57038000Y76962000D01*
X57038000Y76962000D02*
X57380000Y76620000D01*
%TO.N,Net-(C8-Pad1)*%
X70000000Y62540000D02*
X74032000Y62540000D01*
X74032000Y62540000D02*
X74168000Y62404000D01*
%TO.N,Net-(C7-Pad1)*%
X30000000Y62540000D02*
X34270000Y62540000D01*
X34270000Y62540000D02*
X34290000Y62520000D01*
X29980000Y62520000D02*
X30000000Y62540000D01*
%TO.N,Net-(ATTACK1-Pad2)*%
X22621002Y78232000D02*
X27686000Y78232000D01*
X30000000Y60000000D02*
X27742000Y60000000D01*
X27742000Y60000000D02*
X27686000Y59944000D01*
X17272000Y78232000D02*
X22621002Y78232000D01*
X17380000Y76620000D02*
X12810000Y76620000D01*
X12810000Y76620000D02*
X12520000Y76910000D01*
X17220000Y76910000D02*
X17272000Y76962000D01*
X29999837Y92012243D02*
X28724641Y92012243D01*
X28724641Y92012243D02*
X27459837Y92012243D01*
%TO.N,Net-(C4-Pad2)*%
X25654000Y57484000D02*
X29976000Y57484000D01*
X29976000Y57484000D02*
X30000000Y57460000D01*
D25*
%TO.N,Net-(D1-Pad2)*%
X160528000Y91440000D02*
X177545998Y91440000D01*
X177545998Y91440000D02*
X177546000Y91440002D01*
X140462000Y34798000D02*
X133604000Y34798000D01*
X160528000Y65024000D02*
X140462004Y65024000D01*
X140462004Y65024000D02*
X140462002Y65024002D01*
D24*
%TO.N,Net-(R42-Pad1)*%
X172720000Y56388000D02*
X177190000Y56388000D01*
X177546000Y72136000D02*
X172720000Y72136000D01*
X172720000Y72136000D02*
X172466000Y71882000D01*
%TO.N,Net-(R38-Pad2)*%
X177546000Y69596000D02*
X180353010Y69596000D01*
X184810000Y56388000D02*
X180388411Y56388000D01*
X180388411Y56388000D02*
X180337845Y56337434D01*
%TO.N,Net-(R37-Pad2)*%
X185166000Y72136000D02*
X187452000Y72136000D01*
%TO.N,Net-(R41-Pad1)*%
X172539837Y86012243D02*
X185005757Y86012243D01*
X185005757Y86012243D02*
X185166000Y85852000D01*
X189230000Y69596000D02*
X195072000Y69596000D01*
X185166000Y74676000D02*
X189230000Y74676000D01*
%TO.N,Net-(R40-Pad1)*%
X172466000Y22352000D02*
X177190000Y22352000D01*
X172466000Y37338000D02*
X177292000Y37338000D01*
%TO.N,Net-(R36-Pad1)*%
X180848000Y22352000D02*
X184810000Y22352000D01*
X177292000Y34798000D02*
X180848000Y34798000D01*
%TO.N,Net-(R39-Pad2)*%
X184912000Y37338000D02*
X187198000Y37338000D01*
%TO.N,Net-(C31-Pad2)*%
X163068000Y37592000D02*
X127000000Y37592000D01*
X127000000Y37592000D02*
X126746000Y37846000D01*
X177190000Y20000000D02*
X163256000Y20000000D01*
X163256000Y20000000D02*
X163068000Y19812000D01*
%TO.N,Net-(R35-Pad2)*%
X139954000Y74930000D02*
X121666000Y74930000D01*
X139920000Y76620000D02*
X142460000Y76620000D01*
%TO.N,Net-(C31-Pad1)*%
X120904000Y45720000D02*
X121891828Y45720000D01*
X121891828Y45720000D02*
X124460000Y45720000D01*
%TO.N,Net-(C23-Pad1)*%
X100838000Y7112000D02*
X98630000Y7112000D01*
X98630000Y7112000D02*
X98552000Y7190000D01*
%TO.N,Net-(C22-Pad1)*%
X60960000Y7112000D02*
X58498000Y7112000D01*
X58498000Y7112000D02*
X58420000Y7190000D01*
%TO.N,Net-(C21-Pad1)*%
X18500000Y7190000D02*
X20652000Y7190000D01*
X20652000Y7190000D02*
X20828000Y7366000D01*
%TO.N,Net-(C19-Pad1)*%
X58420000Y40386000D02*
X62484000Y40386000D01*
%TO.N,Net-(C18-Pad1)*%
X18288000Y40386000D02*
X22352000Y40386000D01*
%TO.N,Net-(C15-Pad1)*%
X100076000Y44450000D02*
X114808000Y44450000D01*
X114790000Y17000000D02*
X114808000Y17018000D01*
X106000000Y17000000D02*
X114790000Y17000000D01*
%TO.N,Net-(C23-Pad2)*%
X103552000Y4000000D02*
X106108000Y4000000D01*
X106108000Y4000000D02*
X106172000Y4064000D01*
%TO.N,Net-(R43-Pad1)*%
X172539837Y51512243D02*
X184862243Y51512243D01*
X184862243Y51512243D02*
X184912000Y51562000D01*
X184912000Y39878000D02*
X189230000Y39878000D01*
X194818000Y37338000D02*
X189230002Y37338000D01*
X189230002Y37338000D02*
X189230000Y37338002D01*
%TO.N,Net-(R44-Pad2)*%
X186690000Y22352000D02*
X193548000Y22352000D01*
X193548000Y22352000D02*
X193802000Y22098000D01*
X170180000Y29464000D02*
X186182000Y29464000D01*
X186182000Y29464000D02*
X186436000Y29210000D01*
%TO.N,Net-(R45-Pad2)*%
X169999837Y86012243D02*
X169999837Y85270163D01*
X169999837Y85270163D02*
X171196000Y84074000D01*
X171196000Y84074000D02*
X195580000Y84074000D01*
%TO.N,Net-(R46-Pad2)*%
X193802000Y56642000D02*
X186690000Y56642000D01*
X186690000Y56642000D02*
X185674000Y57658000D01*
X185674000Y57658000D02*
X170491685Y57658000D01*
X170491685Y57658000D02*
X169926000Y57658000D01*
X170434000Y57658000D02*
X169926000Y57658000D01*
%TO.N,Net-(R47-Pad2)*%
X195268315Y49022000D02*
X195834000Y49022000D01*
X172490080Y49022000D02*
X195268315Y49022000D01*
X169999837Y51512243D02*
X172490080Y49022000D01*
%TO.N,Net-(C32-Pad1)*%
X155194000Y51054000D02*
X155194000Y48006000D01*
%TO.N,Net-(C32-Pad2)*%
X186182000Y4826000D02*
X160274000Y4826000D01*
X160274000Y4826000D02*
X160020000Y5080000D01*
%TO.N,Net-(C14-Pad1)*%
X60198000Y43942000D02*
X75184000Y43942000D01*
X75166002Y17000000D02*
X75184000Y17017998D01*
X66000000Y17000000D02*
X75166002Y17000000D01*
%TO.N,Net-(C22-Pad2)*%
X63498000Y7190000D02*
X63420000Y7112000D01*
X66040000Y7190000D02*
X63498000Y7190000D01*
%TO.N,Net-(C21-Pad2)*%
X23699998Y7190000D02*
X23621998Y7112000D01*
X26162000Y7190000D02*
X23699998Y7190000D01*
%TO.N,Net-(C13-Pad1)*%
X35287994Y17000000D02*
X35305994Y17018000D01*
X26000000Y17000000D02*
X35287994Y17000000D01*
X20066000Y44196000D02*
X35306000Y44196000D01*
%TO.N,Net-(C12-Pad1)*%
X113284000Y46990000D02*
X110010000Y46990000D01*
X110010000Y46990000D02*
X110000000Y47000000D01*
X113284000Y24638000D02*
X106018000Y24638000D01*
X106018000Y24638000D02*
X106000000Y24620000D01*
%TO.N,Net-(C20-Pad2)*%
X103298000Y27432000D02*
X105664000Y27432000D01*
%TO.N,Net-(C19-Pad2)*%
X63420000Y27940000D02*
X65786000Y27940000D01*
%TO.N,Net-(C11-Pad1)*%
X70000000Y47000000D02*
X73396000Y47000000D01*
X73396000Y47000000D02*
X73406000Y46990000D01*
X66000000Y24620000D02*
X73388000Y24620000D01*
X73388000Y24620000D02*
X73406000Y24638000D01*
%TO.N,Net-(C10-Pad1)*%
X26000000Y24620000D02*
X33510000Y24620000D01*
X33510000Y24620000D02*
X33528000Y24638000D01*
X33528000Y46990000D02*
X30010000Y46990000D01*
X30010000Y46990000D02*
X30000000Y47000000D01*
%TO.N,Net-(C18-Pad2)*%
X23450000Y28860000D02*
X25812000Y28860000D01*
X25812000Y28860000D02*
X25908000Y28956000D01*
%TO.N,Net-(R19-Pad1)*%
X152654000Y71374000D02*
X142494000Y71374000D01*
%TO.N,Net-(D5-Pad2)*%
X145000000Y69000000D02*
X152566000Y69000000D01*
X152566000Y69000000D02*
X152654000Y69088000D01*
X155702000Y69088000D02*
X154429208Y69088000D01*
X154429208Y69088000D02*
X152654000Y69088000D01*
%TO.N,Net-(R1-Pad2)*%
X10160000Y72644000D02*
X19812000Y72644000D01*
X10160000Y81280000D02*
X19910000Y81280000D01*
X19910000Y81280000D02*
X20000000Y81190000D01*
%TO.N,Net-(R2-Pad2)*%
X50038000Y71882000D02*
X59944000Y71882000D01*
X50038000Y81280000D02*
X59910000Y81280000D01*
X59910000Y81280000D02*
X60000000Y81190000D01*
%TO.N,Net-(R3-Pad2)*%
X90170000Y72760000D02*
X99706000Y72760000D01*
X99706000Y72760000D02*
X99822000Y72644000D01*
X90170000Y81280000D02*
X99910000Y81280000D01*
X99910000Y81280000D02*
X100000000Y81190000D01*
%TO.N,Net-(R4-Pad1)*%
X22352000Y71628000D02*
X30734000Y71628000D01*
%TO.N,Net-(R10-Pad2)*%
X62484000Y72390000D02*
X71120000Y72390000D01*
%TO.N,Net-(R11-Pad2)*%
X110998000Y72136000D02*
X102362000Y72136000D01*
%TO.N,2.5v*%
X135890000Y24130000D02*
X136017000Y24257000D01*
X131826000Y24130000D02*
X135890000Y24130000D01*
X153416000Y33020000D02*
X136207500Y33020000D01*
X136207500Y33020000D02*
X136080500Y32893000D01*
X155194000Y42926000D02*
X153289000Y42926000D01*
X153289000Y42926000D02*
X153225500Y42989500D01*
D25*
X128524000Y21590000D02*
X127000000Y21590000D01*
X129540000Y20574000D02*
X128524000Y21590000D01*
X131318000Y20574000D02*
X129540000Y20574000D01*
D24*
%TO.N,Net-(D2-Pad2)*%
X25000000Y69000000D02*
X30392000Y69000000D01*
X30392000Y69000000D02*
X30734000Y69342000D01*
X30734000Y69342000D02*
X33528000Y69342000D01*
X33528000Y69342000D02*
X33782000Y69596000D01*
%TO.N,Net-(D3-Pad2)*%
X65000000Y69000000D02*
X71032000Y69000000D01*
X71032000Y69000000D02*
X71120000Y69088000D01*
X74168000Y69088000D02*
X72895208Y69088000D01*
X72895208Y69088000D02*
X71120000Y69088000D01*
%TO.N,Net-(D4-Pad2)*%
X110998000Y69088000D02*
X114046000Y69088000D01*
X105156000Y67056000D02*
X110998000Y67056000D01*
%TO.N,Net-(R18-Pad2)*%
X130048000Y70866000D02*
X138054000Y70866000D01*
X138054000Y70866000D02*
X139920000Y69000000D01*
X130048000Y81280000D02*
X139910000Y81280000D01*
X139910000Y81280000D02*
X140000000Y81190000D01*
D25*
%TO.N,Net-(C1-Pad1)*%
X147828000Y29464000D02*
X155448000Y29464000D01*
X155448000Y29464000D02*
X155702000Y29718000D01*
X141224000Y30734000D02*
X141986000Y29972000D01*
X141986000Y29972000D02*
X147320000Y29972000D01*
X147320000Y29972000D02*
X147828000Y29464000D01*
D24*
%TO.N,Net-(C27-Pad1)*%
X95840000Y17000000D02*
X95840000Y17354000D01*
X95840000Y17354000D02*
X99060000Y20574000D01*
X99060000Y20574000D02*
X115512321Y20574000D01*
X115512321Y20574000D02*
X116078006Y20574000D01*
X116078000Y42164000D02*
X100838000Y42164000D01*
X92539837Y42012243D02*
X100686243Y42012243D01*
X100686243Y42012243D02*
X100838000Y42164000D01*
X89999837Y42012243D02*
X92539837Y42012243D01*
%TO.N,Net-(C26-Pad1)*%
X55880000Y19558000D02*
X49022000Y19558000D01*
X52539837Y42012243D02*
X60603757Y42012243D01*
X60603757Y42012243D02*
X60706000Y41910000D01*
X49999837Y42012243D02*
X51275033Y42012243D01*
X51275033Y42012243D02*
X52539837Y42012243D01*
%TO.N,Net-(C25-Pad1)*%
X6604000Y15240000D02*
X15748000Y15240000D01*
X20828000Y31750000D02*
X6604000Y31750000D01*
X12539837Y42012243D02*
X20471757Y42012243D01*
X20471757Y42012243D02*
X20574000Y41910000D01*
X9999837Y42012243D02*
X12539837Y42012243D01*
%TO.N,2.5v*%
X155194000Y42926000D02*
X156210000Y41910000D01*
X156210000Y41910000D02*
X167386000Y41910000D01*
X167386000Y41910000D02*
X167459837Y41910000D01*
X177292000Y32258000D02*
X178091999Y33057999D01*
X178091999Y33057999D02*
X181393999Y33057999D01*
X181393999Y33057999D02*
X182334001Y33998001D01*
X182334001Y33998001D02*
X184112001Y33998001D01*
X184112001Y33998001D02*
X184912000Y34798000D01*
X177546000Y67056000D02*
X181609998Y67056000D01*
X181609998Y67056000D02*
X181610000Y67055998D01*
X185166000Y69596000D02*
X181609998Y69596000D01*
X167386000Y67056000D02*
X177546000Y67056000D01*
X167386000Y68688406D02*
X167459837Y68762243D01*
X177292000Y32258000D02*
X167640000Y32258000D01*
X167640000Y32258000D02*
X167386000Y32004000D01*
%TO.N,Net-(ATTACK4-Pad1)*%
X156399765Y92012243D02*
X156464000Y91948008D01*
X152539837Y92012243D02*
X156399765Y92012243D01*
%TO.N,Net-(U1-Pad6)*%
X19920000Y76620000D02*
X21051370Y76620000D01*
X21051370Y76620000D02*
X22460000Y76620000D01*
%TO.N,Net-(U2-Pad6)*%
X59920000Y76620000D02*
X62460000Y76620000D01*
%TO.N,Net-(U3-Pad6)*%
X99920000Y76620000D02*
X101051370Y76620000D01*
X101051370Y76620000D02*
X102460000Y76620000D01*
%TO.N,Net-(LEDSW3-Pad7)*%
X94996000Y14478000D02*
X83058000Y14478000D01*
%TO.N,Net-(LEDSW2-Pad7)*%
X45720000Y8382000D02*
X43180000Y8382000D01*
X47338000Y10000000D02*
X45720000Y8382000D01*
X55080000Y10000000D02*
X47338000Y10000000D01*
%TO.N,Net-(LEDSW1-Pad7)*%
X3302000Y11430000D02*
X5842000Y11430000D01*
X5842000Y11430000D02*
X7272000Y10000000D01*
X7272000Y10000000D02*
X15080000Y10000000D01*
%TO.N,Net-(J10-Pad1)*%
X81534000Y41910000D02*
X87357594Y41910000D01*
X87357594Y41910000D02*
X87459837Y42012243D01*
X98044000Y79756000D02*
X81534000Y79756000D01*
%TO.N,Net-(J8-Pad1)*%
X18288000Y79756000D02*
X2540012Y79756000D01*
X2540012Y79756000D02*
X2540000Y79755988D01*
X2450767Y42012243D02*
X2299010Y42164000D01*
X7459837Y42012243D02*
X2450767Y42012243D01*
%TO.N,Net-(J9-Pad1)*%
X60960000Y90423992D02*
X40626998Y90423992D01*
X40626998Y90423992D02*
X40626990Y90424000D01*
X47459837Y42012243D02*
X40729233Y42012243D01*
X40729233Y42012243D02*
X40626990Y41910000D01*
%TO.N,Net-(J10-Pad2)*%
X163068000Y79756000D02*
X103194695Y79756000D01*
X103194695Y79756000D02*
X102629010Y79756000D01*
X97921002Y78486000D02*
X80264000Y78486000D01*
X102629010Y79756000D02*
X99191002Y79756000D01*
X99191002Y79756000D02*
X97921002Y78486000D01*
X93218000Y19304000D02*
X80264000Y19304000D01*
X163068000Y83058000D02*
X164592000Y83058000D01*
X164592000Y83058000D02*
X197625000Y83058000D01*
%TO.N,Net-(J8-Pad2)*%
X161794010Y88138000D02*
X161544000Y88388010D01*
X196850000Y88138000D02*
X161794010Y88138000D01*
X161543992Y82804000D02*
X161544000Y82803992D01*
X22606000Y82804000D02*
X161543992Y82804000D01*
X15747998Y38608000D02*
X15748000Y38607998D01*
X7874000Y38608000D02*
X15747998Y38608000D01*
X16256012Y82804000D02*
X16002000Y82549988D01*
X22606000Y82804000D02*
X16256012Y82804000D01*
X13208000Y19050000D02*
X7620000Y19050000D01*
%TO.N,Net-(J9-Pad2)*%
X54610000Y12192000D02*
X67056000Y12192000D01*
X67056000Y12192000D02*
X68834000Y13970000D01*
X68834000Y13970000D02*
X76650315Y13970000D01*
X76650315Y13970000D02*
X77216000Y13970000D01*
X62738000Y87897000D02*
X77216000Y87897000D01*
X77216000Y87897000D02*
X96787000Y87897000D01*
X96787000Y87897000D02*
X98806000Y89916000D01*
X98806000Y89916000D02*
X178758315Y89916000D01*
X178758315Y89916000D02*
X179324000Y89916000D01*
%TD*%
M02*
