M48
;DRILL file {KiCad (2017-09-01 revision 8d1475135)-makepkg} date 09/04/17 14:01:07
;FORMAT={2:4/ absolute / inch / suppress leading zeros}
FMAT,2
INCH,TZ
T1C0.016
T2C0.024
T3C0.031
T4C0.032
T5C0.033
T6C0.035
T7C0.035
T8C0.039
T9C0.055
T10C0.081
%
G90
G05
M72
T1
X600Y36200
X600Y19600
X600Y6700
X600Y26400
X600Y28100
X700Y5000
X700Y800
X905Y16600
X1000Y31400
X1300Y11500
X1300Y4500
X1368Y29322
X2000Y6700
X2600Y12500
X2600Y6000
X2900Y35500
X3000Y7500
X3100Y15200
X3400Y11500
X4000Y32000
X4000Y28600
X4500Y29300
X5200Y7500
X6200Y15200
X6200Y6000
X6300Y32500
X6600Y14800
X6800Y30800
X6800Y28100
X6900Y36600
X6900Y35500
X6900Y19488
X7200Y31400
X7200Y15900
X7300Y7700
X7800Y36200
X7800Y28600
X7900Y17400
X8100Y16500
X8200Y12500
X8200Y2900
X8800Y28200
X8800Y19488
X8900Y32600
X8900Y24600
X9300Y2800
X9800Y29000
X9900Y36600
X10900Y30800
X10900Y23600
X11700Y7700
X12100Y28200
X13200Y18500
X13200Y9700
X13500Y19500
X13900Y6700
X13900Y17400
X15600Y29000
X15600Y4900
X15600Y3900
X15600Y800
X15995Y35600
X15995Y16500
X16300Y5500
X16500Y37400
X17000Y3300
X17700Y6700
X18700Y34300
X18700Y37096
X19300Y7700
X19700Y32000
X19700Y28300
X21000Y12000
X21500Y4800
X22000Y7700
X22300Y14800
X22600Y31100
X22600Y19488
X22605Y12000
X22700Y34300
X23000Y15900
X23000Y7700
X23600Y36200
X23600Y28300
X23700Y17300
X23900Y16500
X24000Y35600
X24000Y2800
X24600Y28500
X24600Y24600
X24600Y19488
X24700Y34605
X24969Y2800
X25600Y29000
X25700Y34300
X26700Y31100
X26700Y23600
X27600Y7700
X28000Y28500
X28900Y18500
X28900Y9700
X29200Y19488
X29600Y17300
X29600Y6700
X30400Y34605
X30400Y5500
X30800Y29000
X30800Y4900
X30800Y3900
X30800Y800
X31200Y37400
X31200Y5400
X31600Y30900
X31600Y7600
X32100Y31400
X32100Y16500
X32700Y5700
X32900Y19500
X33400Y6700
X34400Y34300
X35500Y32000
X35500Y28646
X36700Y7600
X37400Y36225
X37400Y5700
X38000Y14800
X38400Y34300
X38600Y31400
X39300Y28600
X39370Y24600
X39400Y36200
X39400Y17500
X39700Y16600
X39700Y2800
X40095Y36200
X40100Y31000
X40300Y28400
X40300Y24600
X40405Y31400
X41000Y14800
X41300Y29000
X41400Y34300
X41400Y26400
X41800Y1600
X42400Y31000
X42600Y23700
X43300Y7500
X43700Y28400
X43700Y26400
X44600Y18500
X44600Y9700
X45000Y19500
X45200Y17500
X45200Y6700
X45700Y16600
X45700Y8100
X46600Y29000
X46600Y4900
X46600Y3900
X46600Y800
X47500Y36800
X47900Y29500
X48300Y35000
X48600Y5700
X49200Y10500
X49900Y14900
X50000Y10500
X50200Y7300
X50200Y34300
X51181Y24600
X51181Y22600
X51200Y32000
X51200Y27900
X51200Y20300
X51200Y5700
X52600Y13700
X53550Y9550
X53575Y12950
X53600Y36225
X54100Y24600
X54600Y34300
X54700Y7300
X55100Y36200
X55100Y29500
X55300Y13700
X55300Y25600
X56100Y28100
X56100Y24600
X56100Y18900
X56102Y20300
X56400Y5700
X56400Y2900
X56600Y34300
X57100Y29000
X57700Y37400
X58300Y30800
X59600Y15900
X59700Y36900
X59900Y10716
X59905Y18895
X60100Y28100
X60300Y20100
X60325Y16925
X60400Y13000
X61300Y6700
X61600Y36200
X63000Y2000
X63200Y36000
X63200Y25600
X63600Y34798
X63600Y32600
X63600Y32187
X63600Y21700
X63600Y15800
X63600Y9600
X64200Y32700
X64200Y31400
X64200Y14800
X64200Y7800
X64400Y29400
X64400Y22600
X64400Y15700
X64900Y32200
X65800Y36500
X65900Y26400
X65900Y12600
X65929Y16500
X66900Y22700
X67000Y11600
X67900Y28300
X67900Y14700
X67900Y8800
X67900Y5000
X68000Y22200
X69000Y21700
X69900Y36000
X70600Y35400
X70700Y7100
X70900Y36000
X70999Y22180
X71005Y27400
X71200Y13700
X71200Y8800
X71500Y27400
X71500Y26400
X71900Y12700
X71913Y26400
X72800Y20300
X72800Y9600
X72900Y33800
X73400Y11500
X73500Y8800
X74500Y29400
X74500Y27400
X74500Y15700
X74500Y14700
X75600Y31100
X75600Y24300
X75600Y17500
X75600Y10700
X76400Y36000
X77000Y33100
X77100Y19300
X77500Y34700
X77805Y32700
T2
X51523Y19800
X52023Y20300
X52023Y19300
T3
X38339Y30165
X38339Y27165
X39339Y30165
X39339Y27165
X40339Y30165
X40339Y27165
X41339Y30165
X41339Y27165
X19984Y9693
X19984Y6693
X20984Y9693
X20984Y6693
X21984Y9693
X21984Y6693
X22984Y9693
X22984Y6693
X23984Y9693
X23984Y6693
X24984Y9693
X24984Y6693
X25984Y9693
X25984Y6693
X1937Y3937
X2937Y4937
X2937Y2937
X3937Y4937
X3937Y2937
X4937Y4937
X4937Y2937
X5937Y3937
X69900Y29400
X69900Y28400
X69900Y27400
X69900Y26400
X72900Y29400
X72900Y28400
X72900Y27400
X72900Y26400
X38800Y1575
X40769Y1575
X22591Y30165
X22591Y27165
X23591Y30165
X23591Y27165
X24591Y30165
X24591Y27165
X25591Y30165
X25591Y27165
X54700Y10484
X54700Y9500
X13500Y24614
X13500Y22646
X60700Y24600
X60700Y22631
X11811Y19488
X11811Y18504
X39370Y19488
X39370Y18504
X19685Y19488
X19685Y18504
X33433Y3937
X34433Y4937
X34433Y2937
X35433Y4937
X35433Y2937
X36433Y4937
X36433Y2937
X37433Y3937
X3937Y19488
X3937Y18504
X54087Y30165
X54087Y27165
X55087Y30165
X55087Y27165
X56087Y30165
X56087Y27165
X57087Y30165
X57087Y27165
X17685Y3937
X18685Y4937
X18685Y2937
X19685Y4937
X19685Y2937
X20685Y4937
X20685Y2937
X21685Y3937
X23000Y1575
X24969Y1575
X41600Y24600
X41600Y22631
X38700Y10800
X40669Y10800
X57400Y24600
X57400Y22631
X7874Y19488
X7874Y18504
X51900Y10484
X51900Y9500
X35433Y19488
X35433Y18504
X7264Y11362
X9232Y11362
X58100Y18900
X58100Y17900
X58100Y16900
X58100Y15900
X61100Y18900
X61100Y17900
X61100Y16900
X61100Y15900
X49181Y3937
X50181Y4937
X50181Y2937
X51181Y4937
X51181Y2937
X52181Y4937
X52181Y2937
X53181Y3937
X69800Y15700
X69800Y14700
X69800Y13700
X69800Y12700
X72800Y15700
X72800Y14700
X72800Y13700
X72800Y12700
X7300Y1575
X9269Y1575
X10100Y24600
X10100Y22631
X45000Y24600
X45000Y22631
X23000Y11000
X24969Y11000
X23622Y19488
X23622Y18504
X43307Y19488
X43307Y18504
X23931Y13800
X25900Y13800
X35732Y9693
X35732Y6693
X36732Y9693
X36732Y6693
X37732Y9693
X37732Y6693
X38732Y9693
X38732Y6693
X39732Y9693
X39732Y6693
X40732Y9693
X40732Y6693
X41732Y9693
X41732Y6693
X39731Y13800
X41700Y13800
X6843Y30165
X6843Y27165
X7843Y30165
X7843Y27165
X8843Y30165
X8843Y27165
X9843Y30165
X9843Y27165
X4236Y9693
X4236Y6693
X5236Y9693
X5236Y6693
X6236Y9693
X6236Y6693
X7236Y9693
X7236Y6693
X8236Y9693
X8236Y6693
X9236Y9693
X9236Y6693
X10236Y9693
X10236Y6693
X57731Y38100
X59700Y38100
X61300Y11700
X61300Y10716
X29200Y24569
X29200Y22600
X25900Y24600
X25900Y22631
X49000Y15900
X49984Y15900
X27559Y19488
X27559Y18504
X8200Y13800
X10169Y13800
X62500Y20100
X63484Y20100
T4
X76300Y11700
X76300Y8700
X47600Y18000
X47600Y15000
X7283Y5831
X7283Y2831
X28000Y30200
X28000Y27200
X36400Y30300
X36400Y27300
X24600Y26303
X24600Y23303
X20700Y30300
X20700Y27300
X43700Y30200
X43700Y27200
X7874Y34965
X7874Y31965
X38400Y12000
X41400Y12000
X76300Y32100
X76300Y29100
X41800Y5831
X41800Y2831
X73700Y13700
X76700Y13700
X73800Y28400
X76800Y28400
X73300Y4900
X73300Y1900
X38800Y5831
X38800Y2831
X69760Y22200
X72760Y22200
X1236Y10626
X4236Y10626
X4929Y30280
X4929Y27280
X32732Y10600
X35732Y10600
X8858Y26303
X8858Y23303
X55118Y34965
X55118Y31965
X73700Y14700
X76700Y14700
X25900Y11000
X28900Y11000
X58100Y20100
X61100Y20100
X10300Y5831
X10300Y2831
X69760Y7874
X72760Y7874
X23000Y5831
X23000Y2831
X23622Y34965
X23622Y31965
X69760Y8800
X72760Y8800
X50000Y11500
X50000Y8500
X52200Y30300
X52200Y27300
X76300Y25300
X76300Y22300
X47500Y19800
X50500Y19800
X41600Y10800
X44600Y10800
X24600Y15900
X27600Y15900
X10200Y11400
X13200Y11400
X54200Y16900
X57200Y16900
X39370Y34965
X39370Y31965
X73800Y27400
X76800Y27400
X56102Y26303
X56102Y23303
X16984Y10600
X19984Y10600
X60100Y30200
X60100Y27200
X51700Y8100
X54700Y8100
X12100Y30300
X12100Y27300
X40354Y26303
X40354Y23303
X8800Y15900
X11800Y15900
X76300Y18500
X76300Y15500
X26000Y5831
X26000Y2831
X69760Y21300
X72760Y21300
T5
X55602Y37402
X56602Y37402
X5898Y37402
X6898Y37402
X76400Y37400
X77400Y37400
X23700Y37400
X24700Y37400
X25700Y37400
X21646Y37402
X22646Y37402
X39400Y37400
X40400Y37400
X41400Y37400
X7900Y37400
X8900Y37400
X9900Y37400
X53634Y37402
X54634Y37402
X37394Y37402
X38394Y37402
X64854Y37402
X65854Y37402
T6
X58055Y36225
X59055Y36225
X60055Y36225
X43307Y14780
X43307Y13780
X43307Y12780
X50181Y26383
X51181Y26383
X52181Y26383
X26559Y36225
X27559Y36225
X28559Y36225
X59055Y24622
X59055Y23622
X59055Y22622
X74803Y4937
X74803Y3937
X74803Y2937
X43307Y24622
X43307Y23622
X43307Y22622
X18685Y16540
X19685Y16540
X20685Y16540
X34433Y36225
X35433Y36225
X36433Y36225
X2937Y36225
X3937Y36225
X4937Y36225
X74803Y32102
X74803Y31102
X74803Y30102
X65929Y27072
X66929Y27072
X67929Y27072
X43307Y4937
X43307Y3937
X43307Y2937
X74803Y18520
X74803Y17520
X74803Y16520
X65929Y33863
X66929Y33863
X67929Y33863
X34433Y16540
X35433Y16540
X36433Y16540
X65929Y20280
X66929Y20280
X67929Y20280
X27559Y14780
X27559Y13780
X27559Y12780
X65929Y13489
X66929Y13489
X67929Y13489
X65929Y6698
X66929Y6698
X67929Y6698
X42307Y36225
X43307Y36225
X44307Y36225
X18685Y36225
X19685Y36225
X20685Y36225
X2937Y26383
X3937Y26383
X4937Y26383
X74803Y25311
X74803Y24311
X74803Y23311
X11811Y24622
X11811Y23622
X11811Y22622
X18685Y26383
X19685Y26383
X20685Y26383
X11811Y14780
X11811Y13780
X11811Y12780
X74803Y11728
X74803Y10728
X74803Y9728
X27559Y24622
X27559Y23622
X27559Y22622
X50181Y36225
X51181Y36225
X52181Y36225
X59055Y4937
X59055Y3937
X59055Y2937
X10811Y36225
X11811Y36225
X12811Y36225
X34433Y26383
X35433Y26383
X36433Y26383
X2937Y16540
X3937Y16540
X4937Y16540
X69866Y37402
X70866Y37402
X71866Y37402
X27559Y4937
X27559Y3937
X27559Y2937
X11811Y4937
X11811Y3937
X11811Y2937
T7
X61300Y30200
X61300Y27200
X52600Y12100
X55600Y12100
X13300Y30400
X13300Y27400
X49000Y18000
X52000Y18000
X44900Y30200
X44900Y27200
X29200Y30200
X29200Y27200
T8
X58200Y11600
X58200Y10600
X58200Y9600
T9
X5898Y38152
X6898Y38152
X76400Y38150
X77400Y38150
X23700Y38150
X24700Y38150
X25700Y38150
X21646Y38152
X22646Y38152
X39400Y38150
X40400Y38150
X41400Y38150
X7900Y38150
X8900Y38150
X9900Y38150
X53634Y38152
X54634Y38152
X37394Y38152
X38394Y38152
X64854Y38152
X65854Y38152
X55602Y38152
X56602Y38152
T10
X65199Y31103
X68659Y31103
X33703Y13780
X37163Y13780
X65199Y17520
X68659Y17520
X65199Y10729
X68659Y10729
X65199Y3938
X68659Y3938
X41577Y33465
X45037Y33465
X17955Y33465
X21415Y33465
X2207Y23623
X5667Y23623
X17955Y23623
X21415Y23623
X49451Y33465
X52911Y33465
X10081Y33465
X13541Y33465
X33703Y23623
X37163Y23623
X2207Y13780
X5667Y13780
X57325Y33465
X60785Y33465
X49451Y23623
X52911Y23623
X25829Y33465
X29289Y33465
X17955Y13780
X21415Y13780
X33703Y33465
X37163Y33465
X2207Y33465
X5667Y33465
X65199Y24312
X68659Y24312
T0
M30
